<svg xmlns="http://www.w3.org/2000/svg" width="48" height="48" viewBox="0 0 48 48" fill="none">
  <path
    d="M32.48 15.52L28.872 26.342C28.6757 26.9312 28.3448 27.4665 27.9057 27.9057C27.4665 28.3448 26.9312 28.6757 26.342 28.872L15.52 32.48L19.128 21.658C19.3244 21.0689 19.6552 20.5335 20.0944 20.0944C20.5335 19.6552 21.0689 19.3244 21.658 19.128L32.48 15.52Z"
    stroke="#8D75E6" stroke-width="3" stroke-linecap="round" stroke-linejoin="round" />
  <path
    d="M24 44C35.0457 44 44 35.0457 44 24C44 12.9543 35.0457 4 24 4C12.9543 4 4 12.9543 4 24C4 35.0457 12.9543 44 24 44Z"
    stroke="#8D75E6" stroke-width="3" stroke-linecap="round" stroke-linejoin="round" />
</svg>