<svg xmlns="http://www.w3.org/2000/svg" width="136" height="49" viewBox="0 0 136 49" fill="none">
  <path
    d="M68.832 43.0133C69.5165 42.988 70.1123 42.8992 70.6193 42.7471C71.1516 42.6204 71.5953 42.3542 71.9502 41.9486C72.3051 41.5683 72.5586 41.0106 72.7107 40.2754L73.9656 34.6095C74.2698 33.2659 74.8275 32.2265 75.6387 31.4913C76.4753 30.7562 77.5908 30.2872 78.9851 30.0844V29.9323C77.971 29.628 77.2105 29.1337 76.7035 28.4492C76.2218 27.7648 75.981 26.9282 75.981 25.9395C75.981 25.6099 76.0063 25.2677 76.057 24.9128C76.1331 24.5325 76.2091 24.1396 76.2852 23.734L77.0457 20.1975C77.0964 19.944 77.1344 19.7158 77.1598 19.513C77.2105 19.3102 77.2358 19.1201 77.2358 18.9426C77.2358 18.2582 76.9823 17.7892 76.4753 17.5357C75.9683 17.2822 75.2458 17.1554 74.3078 17.1554L74.9923 13.5049H75.4486C76.8429 13.5049 77.9837 13.6823 78.871 14.0373C79.7836 14.3922 80.4427 14.8992 80.8484 15.5583C81.2793 16.2174 81.4948 17.016 81.4948 17.954C81.4948 18.3596 81.4568 18.7652 81.3807 19.1708C81.33 19.5764 81.2666 19.9694 81.1906 20.3496L80.392 24.0382C80.316 24.3424 80.2399 24.6466 80.1639 24.9508C80.1132 25.255 80.0878 25.5339 80.0878 25.7874C80.0878 26.6493 80.4174 27.2958 81.0765 27.7267C81.761 28.1577 82.7243 28.3732 83.9665 28.3732L83.244 32.0998C81.7483 32.0998 80.5568 32.3659 79.6695 32.8983C78.8076 33.4053 78.2372 34.2799 77.9584 35.5221L76.7795 41.0359C76.4753 42.3795 76.0444 43.4569 75.4866 44.2682C74.9289 45.1048 74.1557 45.7132 73.167 46.0934C72.2037 46.4737 70.9615 46.6638 69.4405 46.6638H68.832V43.0133Z"
    fill="white" />
  <path
    d="M57.1534 40.6562L54.6816 20.0459H59.3589L60.3095 31.0735C60.3602 31.5298 60.3983 32.0876 60.4236 32.7467C60.449 33.3805 60.4743 34.0142 60.4997 34.648C60.525 35.2818 60.5377 35.8015 60.5377 36.2071H60.6898C60.8926 35.7001 61.1208 35.1297 61.3743 34.4959C61.6531 33.8621 61.932 33.241 62.2109 32.6326C62.4897 32.0242 62.7179 31.5298 62.8953 31.1496L68.5993 20.0459H73.6948L62.5531 40.6562H57.1534Z"
    fill="white" />
  <path
    d="M43.973 41.0358C42.3759 41.0358 40.9816 40.7443 39.7901 40.1612C38.624 39.5528 37.7113 38.6655 37.0522 37.4994C36.4184 36.3079 36.1016 34.8502 36.1016 33.1264C36.1016 31.4278 36.3424 29.78 36.8241 28.1829C37.3057 26.5858 38.0156 25.1535 38.9535 23.886C39.8915 22.5931 41.045 21.5664 42.4139 20.8058C43.7829 20.0453 45.3673 19.665 47.1672 19.665C49.3474 19.665 50.9699 20.1594 52.0346 21.1481C53.1247 22.1114 53.6697 23.3916 53.6697 24.9887C53.6697 26.0281 53.4289 26.9914 52.9472 27.8787C52.4656 28.766 51.7431 29.5392 50.7797 30.1983C49.8164 30.8321 48.5869 31.3264 47.0912 31.6814C45.5955 32.0109 43.8209 32.1757 41.7675 32.1757H40.9309C40.9056 32.3532 40.8802 32.5306 40.8549 32.7081C40.8549 32.8855 40.8549 33.0503 40.8549 33.2024C40.8549 34.47 41.1971 35.484 41.8816 36.2445C42.5914 36.9797 43.5928 37.3473 44.8856 37.3473C45.925 37.3473 46.8884 37.2205 47.7756 36.967C48.6629 36.7135 49.677 36.3206 50.8178 35.7882V39.4767C49.7784 39.9838 48.7263 40.3767 47.6616 40.6556C46.6222 40.9091 45.3927 41.0358 43.973 41.0358ZM42.1097 28.8294C43.5801 28.8294 44.8349 28.69 45.8743 28.4111C46.9137 28.1069 47.7123 27.6759 48.27 27.1182C48.8277 26.5605 49.1066 25.9014 49.1066 25.1408C49.1066 24.5324 48.9164 24.0634 48.5362 23.7339C48.1559 23.3789 47.5982 23.2015 46.863 23.2015C46.1278 23.2015 45.3927 23.4423 44.6575 23.924C43.9477 24.3803 43.3139 25.0267 42.7562 25.8633C42.1984 26.6999 41.7802 27.6886 41.5013 28.8294H42.1097Z"
    fill="white" />
  <path
    d="M20.5912 41.0361C19.5771 41.0361 18.6265 40.7826 17.7392 40.2756C16.8773 39.7686 16.1801 38.9827 15.6477 37.918C15.1407 36.8532 14.8872 35.4463 14.8872 33.697C14.8872 32.3027 15.0266 30.9211 15.3055 29.5522C15.6097 28.1832 16.028 26.9157 16.5604 25.7495C17.1181 24.5581 17.7899 23.506 18.5758 22.5934C19.387 21.6807 20.2996 20.9709 21.3137 20.4639C22.3277 19.9315 23.4305 19.6653 24.6219 19.6653C25.4839 19.6653 26.2191 19.8174 26.8275 20.1217C27.4359 20.4005 27.9556 20.7808 28.3866 21.2624C28.8175 21.7441 29.1851 22.2892 29.4893 22.8976H29.6794C29.7048 22.6187 29.7428 22.2384 29.7935 21.7568C29.8442 21.2498 29.9076 20.7047 29.9837 20.1217C30.0851 19.5386 30.1865 18.9682 30.2879 18.4105L31.6948 11.7559H36.4481L30.3259 40.6559H26.6373L26.9796 37.5377H26.8275C26.3205 38.2222 25.7501 38.8306 25.1163 39.363C24.5079 39.87 23.8234 40.2756 23.0629 40.5798C22.3277 40.884 21.5038 41.0361 20.5912 41.0361ZM22.4925 37.1574C23.0755 37.1574 23.6206 37.0053 24.1276 36.7011C24.6346 36.3969 25.1036 35.9913 25.5346 35.4843C25.9655 34.9519 26.3585 34.3562 26.7134 33.697C27.0683 33.0126 27.3598 32.3027 27.588 31.5676C27.8415 30.807 28.0316 30.0465 28.1584 29.286C28.2851 28.5255 28.3485 27.803 28.3485 27.1185C28.3485 26.0538 28.095 25.1918 27.588 24.5327C27.081 23.8736 26.3205 23.544 25.3064 23.544C24.6473 23.544 24.0389 23.7341 23.4812 24.1144C22.9234 24.4947 22.4037 25.0144 21.9221 25.6735C21.4658 26.3326 21.0728 27.0931 20.7433 27.9551C20.4137 28.7917 20.1475 29.6916 19.9447 30.6549C19.7673 31.6183 19.6785 32.5943 19.6785 33.583C19.6785 34.7745 19.9194 35.6744 20.401 36.2828C20.8827 36.8659 21.5798 37.1574 22.4925 37.1574Z"
    fill="white" />
  <path
    d="M9.46663 46.6638C7.3625 46.6638 5.82877 46.2709 4.86544 45.485C3.92746 44.6991 3.45847 43.6091 3.45847 42.2148C3.45847 41.8091 3.48382 41.4035 3.53452 40.9979C3.58522 40.5923 3.66127 40.1994 3.76268 39.8191L4.56123 36.1686C4.61193 35.839 4.66263 35.5221 4.71334 35.2179C4.78939 34.9137 4.82741 34.6348 4.82741 34.3813C4.82741 33.5194 4.49785 32.873 3.83873 32.442C3.17961 32.011 2.21627 31.7955 0.94873 31.7955L1.70926 28.069C3.17961 28.069 4.35842 27.8155 5.2457 27.3084C6.13299 26.7761 6.70338 25.8888 6.95689 24.6466L8.17373 19.1328C8.45259 17.8145 8.8582 16.7498 9.39057 15.9386C9.94829 15.102 10.7088 14.4936 11.6722 14.1133C12.6608 13.7077 13.9157 13.5049 15.4368 13.5049H16.6536L15.855 17.1554C14.8664 17.1808 14.0678 17.3709 13.4594 17.7258C12.8763 18.0554 12.458 18.7779 12.2045 19.8933L10.9497 25.5592C10.6454 26.9028 10.0877 27.9549 9.27649 28.7154C8.46527 29.4506 7.34983 29.9196 5.93018 30.1224V30.2365C6.94421 30.5407 7.69206 31.0477 8.17373 31.7575C8.68075 32.442 8.93426 33.2659 8.93426 34.2292C8.93426 34.5588 8.90891 34.9137 8.8582 35.294C8.8075 35.6489 8.74413 36.0291 8.66807 36.4348L7.90755 39.9712C7.85684 40.1994 7.81882 40.4275 7.79347 40.6557C7.76812 40.8585 7.75544 41.0486 7.75544 41.2261C7.75544 41.9105 7.9836 42.3795 8.43992 42.633C8.89623 42.8866 9.50465 43.0133 10.2652 43.0133V46.6638H9.46663Z"
    fill="white" />
  <path
    d="M86.5801 40.7555C86.5801 40.0862 86.7554 39.6162 87.1059 39.3453C87.4565 39.0585 87.8867 38.915 88.3967 38.915C88.9066 38.915 89.3368 39.0505 89.6874 39.3214C90.0539 39.5923 90.2371 40.0703 90.2371 40.7555C90.2371 41.4088 90.0539 41.8789 89.6874 42.1657C89.3368 42.4526 88.9066 42.596 88.3967 42.596C87.8867 42.596 87.4565 42.4526 87.1059 42.1657C86.7554 41.8789 86.5801 41.4088 86.5801 40.7555Z"
    fill="white" fill-opacity="0.3" stroke="white" />
  <path d="M108.705 1H101.914L110.606 9.82754L100.828 18.6551H108.161L117.125 9.82754L108.705 1Z" fill="white"
    fill-opacity="0.3" stroke="white" />
  <path d="M126.631 1H119.841L128.533 9.82754L118.754 18.6551H126.088L135.051 9.82754L126.631 1Z" fill="white"
    fill-opacity="0.3" stroke="white" />
  <path
    d="M134.477 31.1996C134.477 32.7757 134.268 34.1664 133.851 35.3716C133.434 36.5769 132.831 37.6083 132.043 38.4659C131.278 39.3003 130.328 39.9377 129.192 40.378C128.08 40.7952 126.84 41.0038 125.472 41.0038C124.174 41.0038 122.981 40.7952 121.891 40.378C120.802 39.9377 119.852 39.3003 119.04 38.4659C118.252 37.6083 117.638 36.5769 117.198 35.3716C116.757 34.1664 116.537 32.7757 116.537 31.1996C116.537 29.1136 116.896 27.352 117.615 25.915C118.333 24.4548 119.365 23.3538 120.709 22.6122C122.077 21.8473 123.688 21.4648 125.542 21.4648C127.303 21.4648 128.845 21.8473 130.166 22.6122C131.51 23.3538 132.565 24.4548 133.33 25.915C134.094 27.352 134.477 29.1136 134.477 31.1996ZM121.022 31.1996C121.022 32.5207 121.173 33.6564 121.474 34.6067C121.799 35.5339 122.285 36.2408 122.934 36.7275C123.606 37.2143 124.464 37.4576 125.507 37.4576C126.573 37.4576 127.431 37.2143 128.08 36.7275C128.752 36.2408 129.239 35.5339 129.54 34.6067C129.841 33.6564 129.992 32.5207 129.992 31.1996C129.992 29.8553 129.83 28.7311 129.505 27.8272C129.204 26.9001 128.717 26.2047 128.045 25.7412C127.396 25.2544 126.55 25.0111 125.507 25.0111C123.931 25.0111 122.784 25.5442 122.065 26.6103C121.37 27.6765 121.022 29.2063 121.022 31.1996Z"
    fill="white" />
  <path
    d="M102.909 21.4648C104.091 21.4648 105.157 21.6966 106.107 22.1602C107.058 22.6237 107.857 23.3191 108.506 24.2462H108.68L109.097 21.8125H112.748V40.7952C112.748 42.58 112.412 44.0749 111.74 45.2802C111.068 46.5086 110.059 47.4357 108.715 48.0615C107.371 48.6873 105.69 49.0002 103.674 49.0002C102.329 49.0002 101.089 48.9075 99.9537 48.7221C98.818 48.5599 97.7402 48.2701 96.7204 47.8529V44.2372C97.4389 44.5385 98.1806 44.7934 98.9454 45.002C99.7335 45.2338 100.545 45.4077 101.379 45.5236C102.214 45.6394 103.071 45.6974 103.952 45.6974C105.389 45.6974 106.478 45.2918 107.22 44.4805C107.985 43.6693 108.367 42.5104 108.367 41.0039V40.5171C108.367 40.1694 108.379 39.7638 108.402 39.3003C108.448 38.8367 108.483 38.4659 108.506 38.1877H108.367C107.718 39.1612 106.93 39.8797 106.003 40.3433C105.076 40.7837 104.01 41.0039 102.805 41.0039C100.51 41.0039 98.7137 40.1463 97.4157 38.4311C96.1177 36.7159 95.4688 34.3286 95.4688 31.2691C95.4688 29.2063 95.7585 27.4448 96.3379 25.9845C96.9405 24.5243 97.7981 23.4118 98.9107 22.6469C100.023 21.8589 101.356 21.4648 102.909 21.4648ZM104.056 25.0458C103.175 25.0458 102.422 25.2892 101.796 25.7759C101.194 26.2395 100.73 26.9348 100.406 27.862C100.104 28.7891 99.9537 29.948 99.9537 31.3386C99.9537 33.3783 100.301 34.9196 100.997 35.9626C101.692 37.0057 102.735 37.5272 104.126 37.5272C104.914 37.5272 105.586 37.4344 106.142 37.249C106.698 37.0404 107.15 36.7159 107.498 36.2756C107.869 35.812 108.147 35.2325 108.333 34.5372C108.518 33.8187 108.611 32.9611 108.611 31.9645V31.3039C108.611 29.7973 108.448 28.5921 108.124 27.6881C107.799 26.761 107.301 26.0888 106.629 25.6716C105.98 25.2544 105.122 25.0458 104.056 25.0458Z"
    fill="white" />
</svg>