<svg xmlns="http://www.w3.org/2000/svg" width="128" height="128" viewBox="0 0 128 128" fill="none">
  <path
    d="M34.0874 60C34.0295 61.3202 34 62.6541 34 64C34 92.7188 47.4315 116 64 116C80.5685 116 94 92.7188 94 64C94 35.2812 80.5685 12 64 12C57.5615 12 51.5966 15.5157 46.7097 21.5"
    stroke="#A990F5" stroke-width="4" />
  <path
    d="M109.811 70.5C112.475 77.6504 112.506 84.496 109.317 90.0192C101.032 104.368 74.1545 104.359 49.2833 90C24.4121 75.6406 10.9657 52.368 19.25 38.0192C27.5343 23.6705 54.4121 23.6791 79.2833 38.0385C80.5524 38.7712 81.7918 39.5271 83 40.3039"
    stroke="#A990F5" stroke-width="4" />
  <circle cx="64" cy="64" r="13" stroke="#A990F5" stroke-width="4" />
  <path
    d="M35.7539 100.181C28.3022 98.8924 22.417 95.5051 19.2498 90.0192C10.9655 75.6705 24.4119 52.3979 49.2831 38.0385C74.1543 23.6791 101.032 23.6705 109.316 38.0192C117.601 52.368 104.154 75.6406 79.2831 90C78.0263 90.7256 76.7644 91.4146 75.5 92.0669"
    stroke="#A990F5" stroke-width="4" />
</svg>