<svg xmlns="http://www.w3.org/2000/svg" width="102" height="48" viewBox="0 0 102 48" fill="none">
  <path
    d="M48.7072 20.5566C48.6263 21.7187 48.4445 22.3048 47.384 22.7292L47.4648 23.3861C48.495 23.3052 49.2122 23.3052 50.505 23.3052C53.8985 23.3052 56.3125 23.3355 58.2415 23.4366C58.5345 22.0623 58.7465 20.7587 58.8778 19.1722L58.1606 19.0408C57.8173 20.021 57.5546 20.5768 57.2315 21.0821C56.8377 21.6378 56.4135 22.0118 55.4841 22.1431C54.7672 22.2543 53.8681 22.2745 52.6765 22.2745C51.4847 22.2745 51.0302 22.0421 50.9797 20.7385C50.9493 20.213 50.8988 18.7781 50.8988 17.8484V14.2711C51.7775 14.2711 53.6562 14.3014 54.5045 14.4025C55.6963 14.5642 56.07 14.9583 56.464 16.181L57.1001 16.0497C57.0195 15.0189 57.0195 14.4025 57.0195 13.7457C57.0195 13.0888 57.0195 12.5027 57.1001 11.472L56.464 11.3406C56.07 12.5633 55.6963 12.9878 54.5045 13.1191C53.6562 13.2 51.8078 13.2505 50.8988 13.2505V9.86521C50.8988 8.91532 50.8988 7.95532 50.9797 7.1368C51.0605 6.07576 51.212 5.86354 52.4643 5.86354C53.7166 5.86354 54.0803 5.89387 54.747 5.99491C55.252 6.07576 55.858 6.28795 56.262 6.71239C56.6558 7.1368 56.9486 7.69258 57.2922 8.6728L58.0596 8.54143C57.979 7.08628 57.878 6.10606 57.686 4.75195C56.6558 4.8328 55.8277 4.8328 54.747 4.8328H49.8687C49.202 4.8328 48.495 4.8328 47.4546 4.75195L47.374 5.41891C48.4345 5.84332 48.6161 6.42943 48.697 7.59154C48.7778 8.46058 48.7778 9.6328 48.7778 10.5625V17.6058C48.7778 18.5355 48.7778 19.6977 48.697 20.5768L48.7072 20.5566Z"
    fill="white" />
  <path
    d="M62.0491 15.1098L60.4635 19.5056C59.8271 21.2235 59.6455 21.8096 59.6455 22.4159C59.6455 23.0223 60.1707 23.6286 60.7866 23.6286C61.716 23.6286 62.938 22.8909 64.342 20.1625L63.8166 19.7886C62.5138 21.6378 61.9887 21.9309 61.6956 21.9309C61.4028 21.9309 61.4332 21.7995 61.4332 21.6681C61.4332 21.5368 61.4837 21.3549 61.7765 20.5566L63.5037 15.6858C63.8975 14.5945 64.3216 13.4324 64.3216 12.5835C64.3216 11.7347 63.8166 11.29 63.2611 11.29C62.3825 11.29 61.3018 12.3006 59.7868 14.4934L60.2918 14.9481C61.514 13.5132 62.0392 13.0989 62.3016 13.0989C62.5643 13.0989 62.5138 13.1797 62.5138 13.3414C62.5138 13.6041 62.433 14.1094 62.0593 15.12L62.0491 15.1098Z"
    fill="white" />
  <path
    d="M64.0896 6.82391C64.8874 6.82391 65.4934 6.21761 65.4934 5.41928C65.4934 4.62095 64.8874 4.01465 64.0896 4.01465C63.2915 4.01465 62.6855 4.62095 62.6855 5.41928C62.6855 6.21761 63.2915 6.82391 64.0896 6.82391Z"
    fill="white" />
  <path
    d="M75.755 19.5363C75.755 17.5456 74.5126 16.0197 71.9371 15.9388L68.7355 15.8277C67.5436 15.7771 66.9376 15.2719 66.9376 14.5039C66.9376 13.7359 67.1195 13.2913 67.9476 12.6546C68.7151 13.2913 69.594 13.6348 70.7856 13.6348C73.1188 13.6348 75.0276 11.7856 75.0276 9.18852C75.0276 6.59147 74.7955 7.30893 74.1489 6.59147H76.6336L76.8456 5.61125L76.6336 5.15651C75.7045 5.23736 74.7751 5.26767 74.1186 5.26767C72.6036 5.26767 72.2098 4.74219 70.6746 4.74219C68.3414 4.74219 66.3518 6.70262 66.3518 9.18852C66.3518 11.6744 66.6446 11.1793 67.2506 11.9978C65.8973 13.0285 65.4226 14.0896 65.4226 15.1203C65.4226 16.151 66.1901 17.2424 67.3314 17.6365C65.8164 18.6673 65.2104 19.6474 65.2104 20.8904C65.2104 22.6891 66.7254 24.0129 69.7151 24.0129C72.7046 24.0129 75.755 21.9211 75.755 19.5363ZM70.6241 5.79315C72.0785 5.79315 73.0076 7.11693 73.0076 9.30978C73.0076 11.5026 72.1593 12.5637 70.7756 12.5637C69.392 12.5637 68.392 11.3409 68.392 9.01673C68.392 6.79356 69.3211 5.78304 70.6241 5.78304V5.79315ZM70.1393 22.5376C67.9173 22.5376 66.9376 21.5877 66.9376 20.4458C66.9376 19.3039 67.3113 18.7481 68.2404 17.879C69.3313 17.9599 70.2806 17.9599 71.4724 17.9599C73.4621 17.9599 74.3106 18.7582 74.3106 20.0011C74.3106 21.2441 73.1996 22.5376 70.1495 22.5376H70.1393Z"
    fill="white" />
  <path
    d="M81.6638 24.0227C84.0169 24.0227 85.5824 22.3755 86.3804 20.3949L85.7441 20.0008C84.6532 21.557 83.6231 22.1431 81.9262 22.1431C80.2294 22.1431 78.1589 20.2938 78.1589 17.5654C78.1589 14.837 78.1589 16.8783 78.2094 16.5549H86.3702C86.4207 16.3427 86.4207 16.1608 86.4207 15.9486C86.4207 13.402 84.4816 11.5225 81.9364 11.5225C78.6539 11.5225 76.1289 14.3014 76.1289 17.9797C76.1289 21.658 78.3308 24.0126 81.6434 24.0126L81.6638 24.0227ZM81.3707 12.7149C82.8554 12.7149 84.0776 13.6951 84.0977 15.4938H78.4014C78.7246 13.9275 79.7547 12.7149 81.3707 12.7149Z"
    fill="white" />
  <path
    d="M91.5818 15.9256C90.6022 15.5315 90.4405 15.1071 90.3596 14.0158C90.3091 13.1972 90.3092 12.2675 90.3092 11.449V9.09449C90.3092 7.3968 91.4505 6.15386 93.2787 6.15386C95.1066 6.15386 95.5813 7.16439 95.5813 8.63976V11.449C95.5813 12.2675 95.5813 13.1972 95.5007 14.0158C95.4198 15.1071 95.2885 15.5214 94.3088 15.9256L94.3897 16.532C95.3188 16.4511 95.9047 16.4511 96.5107 16.4511C97.1167 16.4511 97.7023 16.4511 98.6317 16.532L98.7123 15.9256C97.7326 15.5315 97.5712 15.1071 97.4903 14.0158C97.4398 13.1972 97.4398 12.2675 97.4398 11.449V8.40732C97.4398 7.34628 97.2277 6.68943 96.8843 6.07302C96.248 5.04228 95.1571 4.42586 93.8643 4.42586C92.5717 4.42586 91.0263 5.48691 90.3092 6.83091L90.2788 6.8006C90.3092 6.13365 90.3596 5.42628 90.4405 4.57743L89.885 4.36523C88.9558 5.21406 88.2993 5.63849 87.0771 6.21449V6.77028C88.0366 6.95217 88.2993 7.19469 88.3802 8.27597C88.4608 9.09449 88.4608 9.94334 88.4608 10.7619V11.4288C88.4608 12.2473 88.4608 13.177 88.3802 13.9955C88.2993 15.0869 88.168 15.5012 87.1883 15.9054L87.2692 16.5118C88.1983 16.4309 88.7842 16.4309 89.3902 16.4309C89.9962 16.4309 90.5818 16.4309 91.5112 16.5118L91.5918 15.9054L91.5818 15.9256Z"
    fill="white" />
  <path
    d="M57.2319 41.1793C56.8381 41.7856 56.3331 42.21 55.3736 42.3919C54.6059 42.5233 53.8586 42.5233 52.6667 42.5233C51.4749 42.5233 51.1012 42.2908 50.9699 40.9873C50.9194 40.4619 50.889 39.0268 50.889 38.0971V30.7911C50.889 29.8614 50.889 28.6993 50.9699 27.8202C51.0507 26.658 51.2326 26.0719 52.2931 25.6476L52.2122 24.9805C51.1821 25.0614 50.4649 25.0614 49.7984 25.0614C49.1317 25.0614 48.4752 25.0614 47.4349 24.9805L47.354 25.6476C48.4145 26.0719 48.5964 26.658 48.6772 27.8202C48.7581 28.6891 48.7581 29.8614 48.7581 30.7911V37.8345C48.7581 38.7642 48.7581 39.9262 48.6772 40.8054C48.5964 41.9676 48.4145 42.5536 47.354 42.978L47.4349 43.645C48.465 43.5642 49.1822 43.5642 50.485 43.5642C53.8787 43.5642 56.2119 43.5945 58.3026 43.6956C58.5954 42.21 58.8277 40.866 58.969 39.1683L58.2016 39.037C57.858 40.0677 57.5652 40.674 57.2219 41.1793H57.2319Z"
    fill="white" />
  <path
    d="M67.4732 40.7751C67.4227 39.9565 67.4227 39.1885 67.4227 38.37V35.8335C67.4227 34.6413 67.0488 33.5802 66.6247 32.9739C65.9883 32.0442 64.9783 31.5996 63.6857 31.5996C62.3929 31.5996 60.797 32.5797 60.292 33.5094L60.797 34.3582C61.6958 33.6408 62.4434 33.2769 63.3422 33.2769C64.2412 33.2769 64.6149 33.4893 65.0087 34.0146C65.3522 34.4694 65.5642 35.106 65.5642 35.9245V37.218C64.2109 37.5615 62.4635 38.1982 61.4839 38.8348C60.4537 39.5019 59.8174 40.2396 59.8174 41.4825C59.8174 42.7254 60.8779 43.9986 62.5747 43.9986C64.2713 43.9986 64.9278 43.3317 65.645 41.7249H65.6955C65.9378 42.9174 66.6247 43.7157 68.4529 43.7865L68.7962 42.7254C67.9479 42.3312 67.5237 41.6643 67.4732 40.7952V40.7751ZM65.5642 39.5928C65.5642 41.4219 64.1099 42.3717 63.019 42.3717C61.9282 42.3717 61.6958 41.7351 61.6958 41.0175C61.6958 40.3002 62.2212 39.5119 64.029 38.7439C64.534 38.5317 65.0087 38.3196 65.5642 38.1375V39.5928Z"
    fill="white" />
  <path
    d="M80.3908 27.7185C80.8958 26.7078 81.1887 26.2329 81.6635 25.8085L81.5827 25.2021C80.815 25.2831 80.4413 25.2831 79.8555 25.2831C79.2697 25.2831 78.8254 25.2831 78.0577 25.2021L77.9467 25.8085C78.7445 26.2329 78.8758 26.6574 78.8758 27.2133C78.8758 27.7689 78.7749 28.3248 78.0577 29.9922L76.3105 34.095L74.6642 29.9718C73.8661 27.9813 73.7651 27.486 73.7651 26.8695C73.7651 26.2533 73.9773 26.0712 74.5632 25.8085L74.4823 25.2021C73.7147 25.2528 73.23 25.2831 72.6542 25.2831C72.0785 25.2831 71.2807 25.2528 70.513 25.2021L70.402 25.8085C71.0382 26.2329 71.22 26.4756 71.624 27.3445C72.0481 28.2945 72.3917 29.2746 72.6845 30.0225L75.3105 36.51L73.4017 40.6431C73.0077 41.4918 72.6037 41.9163 72.0482 41.9163C71.4927 41.9163 71.3817 41.7849 70.8767 41.7849C70.3717 41.7849 69.8667 42.2901 69.8667 42.8661C69.8667 43.4422 70.3918 43.9779 71.109 43.9779C71.826 43.9779 72.6745 43.5837 73.1188 43.1289C73.644 42.5733 74.149 41.7546 74.654 40.6128L79.3505 30.0225C79.6736 29.3049 79.9868 28.5168 80.3807 27.7185H80.3908Z"
    fill="white" />
  <path
    d="M84.2797 31.5383C80.9972 31.5383 78.4722 34.3174 78.4722 37.9957C78.4722 41.674 80.674 44.0284 83.9869 44.0284C87.2995 44.0284 87.9055 42.3814 88.7035 40.4006L88.0672 40.0066C86.9763 41.5627 85.9462 42.1489 84.2493 42.1489C82.5525 42.1489 80.482 40.2997 80.482 37.5712C80.482 34.8427 80.482 36.884 80.5325 36.5606H88.6933C88.7438 36.3484 88.7438 36.1666 88.7438 35.9543C88.7438 33.4078 86.8047 31.5283 84.2695 31.5283L84.2797 31.5383ZM80.7245 35.5097C81.0477 33.9434 82.0778 32.7307 83.6938 32.7307C85.3098 32.7307 86.4007 33.7111 86.4208 35.5097H80.7245Z"
    fill="white" />
  <path
    d="M97.0561 31.5787C95.8137 31.5787 94.5918 32.5894 93.8746 34.3375L93.8442 34.3072C93.8746 33.6403 93.9251 32.5894 94.0059 31.7404L93.4504 31.5283C92.5213 32.377 91.8648 32.8015 90.6426 33.3775V33.9334C91.6021 34.1152 91.8648 34.3577 91.9454 35.4391C92.0262 36.2575 92.0262 37.1063 92.0262 37.9249V38.5918C92.0262 39.4103 92.0262 40.34 91.9454 41.1586C91.8648 42.25 91.7334 42.6643 90.7538 43.0684L90.8344 43.6747C91.7638 43.594 92.3494 43.594 92.9554 43.594C93.5614 43.594 94.4099 43.594 95.3391 43.6747L95.4199 43.0684C94.2584 42.7249 94.0159 42.25 93.9353 41.1586C93.8848 40.34 93.8848 39.4103 93.8848 38.5918V37.3489C93.8848 34.8124 94.9149 33.3472 96.1672 33.3472C96.8036 33.3472 97.1267 33.8221 97.8136 33.8221C98.5004 33.8221 98.7629 33.61 98.7629 32.8924C98.7629 32.1751 98.1469 31.5686 97.0663 31.5686L97.0561 31.5787Z"
    fill="white" />
  <path d="M37.4155 4.60059H32.5371V14.3724H37.4155V4.60059Z" fill="white" />
  <path d="M27.6587 4.60059H22.9623H22.7704H18.084V9.48141H22.7704V24.134H27.6587H32.537V14.3724H27.6587V4.60059Z"
    fill="white" />
  <path
    d="M17.8921 33.9059H13.0037V24.134V4.60059H3.24707V24.134V43.6777H13.0037H17.8921H22.7704H27.6587H32.537V33.9059H27.6587H22.7704V24.134H17.8921V33.9059Z"
    fill="white" />
</svg>