<svg xmlns="http://www.w3.org/2000/svg" width="224" height="56" viewBox="0 0 224 56" fill="none">
  <path
    d="M63.6157 32.222C63.6125 32.4167 63.5323 32.6022 63.3927 32.7379C63.2531 32.8736 63.0654 32.9486 62.8707 32.9463H49.1501C49.5019 36.3403 52.0474 39.4445 55.6483 39.4445C58.1109 39.4445 59.9321 38.5132 61.2979 36.5472C61.3615 36.444 61.4495 36.3579 61.5541 36.2965C61.6588 36.2352 61.7769 36.2005 61.8981 36.1954C61.9885 36.1929 62.0784 36.2088 62.1624 36.2422C62.2465 36.2756 62.3228 36.3258 62.3867 36.3897C62.4506 36.4537 62.5009 36.53 62.5343 36.614C62.5677 36.698 62.5836 36.788 62.581 36.8784C62.5815 37.0032 62.5455 37.1255 62.4775 37.2302C61.091 39.6308 58.3386 40.8104 55.6483 40.8104C51.0333 40.8104 47.7222 36.6714 47.7222 32.2634C47.7222 27.8554 51.0126 23.7165 55.6483 23.7165C60.2839 23.7165 63.5951 27.814 63.6157 32.222ZM62.1464 31.5805C61.8567 28.1866 59.2492 25.0823 55.6483 25.0823C52.0474 25.0823 49.5019 28.1866 49.1501 31.5805H62.1464Z"
    fill="white" />
  <path
    d="M80.2957 24.0476C80.4752 24.0528 80.6459 24.1264 80.7729 24.2534C80.8998 24.3803 80.9734 24.551 80.9786 24.7305C80.9812 24.8209 80.9653 24.9109 80.9319 24.9949C80.8985 25.0789 80.8483 25.1552 80.7843 25.2192C80.7204 25.2831 80.6441 25.3333 80.5601 25.3667C80.4761 25.4001 80.3861 25.416 80.2957 25.4135H76.6121V39.8791C76.6104 40.0597 76.538 40.2325 76.4102 40.3602C76.2825 40.4879 76.1097 40.5604 75.9291 40.562C75.7496 40.5568 75.579 40.4832 75.452 40.3562C75.325 40.2293 75.2514 40.0586 75.2462 39.8791V25.4135H71.7074C71.617 25.416 71.5271 25.4001 71.443 25.3667C71.359 25.3333 71.2827 25.2831 71.2188 25.2192C71.1548 25.1552 71.1046 25.0789 71.0712 24.9949C71.0378 24.9109 71.0219 24.8209 71.0245 24.7305C71.0261 24.5499 71.0986 24.3771 71.2263 24.2494C71.354 24.1217 71.5268 24.0492 71.7074 24.0476H75.2462V18.7704C75.2465 18.5956 75.3093 18.4266 75.4231 18.2938C75.5369 18.161 75.6943 18.0732 75.867 18.0461C75.9636 18.0333 76.0618 18.0415 76.1549 18.0701C76.248 18.0987 76.3339 18.1471 76.4066 18.2119C76.4793 18.2767 76.5371 18.3565 76.5761 18.4458C76.6152 18.535 76.6345 18.6316 76.6327 18.729V24.0476H80.2957Z"
    fill="white" />
  <path
    d="M102.75 31.0424V39.7963C102.744 39.9758 102.671 40.1465 102.544 40.2735C102.417 40.4004 102.246 40.474 102.067 40.4792C101.976 40.4818 101.886 40.4659 101.802 40.4325C101.718 40.3991 101.642 40.3489 101.578 40.2849C101.514 40.221 101.464 40.1447 101.43 40.0607C101.397 39.9767 101.381 39.8867 101.384 39.7963V31.0424C101.384 28.0831 99.7074 25.1444 96.4169 25.1444C92.1952 25.1444 90.3741 28.8281 90.6224 32.6152C90.6224 32.7187 90.6638 33.1533 90.6638 33.2154V39.7756C90.6634 39.9505 90.6007 40.1195 90.4869 40.2523C90.3731 40.385 90.2157 40.4728 90.0429 40.4999C89.9464 40.5128 89.8482 40.5046 89.7551 40.476C89.662 40.4474 89.5761 40.399 89.5034 40.3341C89.4307 40.2693 89.3729 40.1895 89.3338 40.1003C89.2948 40.011 89.2755 39.9144 89.2772 39.817V11.0306C89.2789 10.85 89.3513 10.6772 89.4791 10.5495C89.6068 10.4217 89.7795 10.3493 89.9602 10.3477C90.1396 10.3529 90.3103 10.4265 90.4373 10.5534C90.5643 10.6804 90.6379 10.8511 90.6431 11.0306V27.2967C91.8227 25.1858 93.9336 23.7579 96.3962 23.7579C100.452 23.7579 102.75 27.2967 102.75 31.0424Z"
    fill="white" />
  <path
    d="M127.397 32.222C127.394 32.4167 127.314 32.6022 127.174 32.7379C127.034 32.8736 126.847 32.9486 126.652 32.9463H112.931C113.283 36.3403 115.829 39.4445 119.43 39.4445C121.892 39.4445 123.713 38.5132 125.079 36.5472C125.143 36.444 125.231 36.3579 125.335 36.2965C125.44 36.2352 125.558 36.2005 125.679 36.1954C125.77 36.1929 125.86 36.2088 125.944 36.2422C126.028 36.2756 126.104 36.3258 126.168 36.3897C126.232 36.4537 126.282 36.53 126.316 36.614C126.349 36.698 126.365 36.788 126.362 36.8784C126.363 37.0032 126.327 37.1255 126.259 37.2302C124.872 39.6308 122.12 40.8104 119.43 40.8104C114.815 40.8104 111.503 36.6714 111.503 32.2634C111.503 27.8554 114.794 23.7165 119.43 23.7165C124.024 23.7165 127.376 27.814 127.397 32.222ZM125.907 31.5805C125.617 28.1866 123.01 25.0823 119.409 25.0823C115.808 25.0823 113.262 28.1866 112.911 31.5805H125.907Z"
    fill="white" />
  <path
    d="M144.263 24.6891C144.276 24.8729 144.216 25.0543 144.096 25.1939C143.976 25.3335 143.805 25.4199 143.622 25.4341C139.586 26.0343 137.765 29.3248 137.765 33.1533V39.7135C137.765 39.8884 137.702 40.0574 137.588 40.1902C137.474 40.3229 137.317 40.4108 137.144 40.4379C137.048 40.4507 136.949 40.4425 136.856 40.4139C136.763 40.3853 136.677 40.3369 136.605 40.2721C136.532 40.2072 136.474 40.1274 136.435 40.0382C136.396 39.9489 136.377 39.8523 136.379 39.7549V24.7926C136.379 24.6177 136.442 24.4487 136.555 24.316C136.669 24.1832 136.827 24.0954 136.999 24.0683C137.096 24.0555 137.194 24.0636 137.287 24.0923C137.38 24.1209 137.466 24.1692 137.539 24.2341C137.612 24.2989 137.669 24.3787 137.708 24.4679C137.747 24.5572 137.767 24.6538 137.765 24.7512V27.7934C138.903 25.8687 141.159 24.0476 143.518 24.0476C143.87 24.0476 144.263 24.2959 144.263 24.6891Z"
    fill="white" />
  <path
    d="M166.821 32.222C166.817 32.4167 166.737 32.6022 166.597 32.7379C166.458 32.8736 166.27 32.9486 166.075 32.9463H152.355C152.707 36.3403 155.252 39.4445 158.853 39.4445C161.316 39.4445 163.137 38.5132 164.503 36.5472C164.566 36.444 164.654 36.3579 164.759 36.2965C164.864 36.2352 164.982 36.2005 165.103 36.1954C165.193 36.1929 165.283 36.2088 165.367 36.2422C165.451 36.2756 165.528 36.3258 165.591 36.3897C165.655 36.4537 165.706 36.53 165.739 36.614C165.772 36.698 165.788 36.788 165.786 36.8784C165.786 37.0032 165.75 37.1255 165.682 37.2302C164.296 39.6308 161.543 40.8104 158.853 40.8104C154.238 40.8104 150.927 36.6714 150.927 32.2634C150.927 27.8554 154.217 23.7165 158.853 23.7165C163.489 23.7165 166.8 27.814 166.821 32.222ZM165.351 31.5805C165.061 28.1866 162.454 25.0823 158.853 25.0823C155.252 25.0823 152.707 28.1866 152.355 31.5805H165.351Z"
    fill="white" />
  <path
    d="M189.005 24.8547V39.8791C189 40.0586 188.926 40.2293 188.799 40.3562C188.673 40.4832 188.502 40.5568 188.322 40.562C188.232 40.5646 188.142 40.5487 188.058 40.5153C187.974 40.4819 187.898 40.4317 187.834 40.3677C187.77 40.3038 187.72 40.2275 187.686 40.1435C187.653 40.0594 187.637 39.9695 187.639 39.8791V37.0232C186.501 39.2789 184.494 40.9138 181.928 40.9138C177.851 40.9138 175.595 37.375 175.595 33.6293V24.834C175.597 24.6534 175.669 24.4806 175.797 24.3529C175.925 24.2252 176.097 24.1527 176.278 24.1511C176.457 24.1563 176.628 24.2299 176.755 24.3569C176.882 24.4838 176.956 24.6545 176.961 24.834V33.6293C176.961 36.5886 178.637 39.5273 181.928 39.5273C186.543 39.5273 187.639 35.2021 187.639 30.4216V24.8133C187.641 24.7026 187.669 24.5938 187.721 24.4962C187.773 24.3985 187.848 24.3148 187.939 24.252C188.031 24.1892 188.135 24.1491 188.245 24.1351C188.355 24.1212 188.467 24.1337 188.571 24.1718C188.701 24.2322 188.811 24.3287 188.888 24.4497C188.965 24.5707 189.006 24.7112 189.005 24.8547Z"
    fill="white" />
  <path
    d="M223.752 30.9803V39.7756C223.747 39.9551 223.673 40.1258 223.546 40.2528C223.419 40.3797 223.248 40.4533 223.069 40.4585C222.978 40.4611 222.889 40.4452 222.804 40.4118C222.72 40.3784 222.644 40.3282 222.58 40.2642C222.516 40.2003 222.466 40.124 222.433 40.04C222.399 39.956 222.383 39.866 222.386 39.7756V30.9803C222.386 28.021 220.71 25.1237 217.419 25.1237C213.28 25.1237 211.707 29.5524 211.707 32.9877V39.7756C211.702 39.9551 211.629 40.1258 211.502 40.2528C211.375 40.3797 211.204 40.4533 211.025 40.4585C210.934 40.4611 210.844 40.4452 210.76 40.4118C210.676 40.3784 210.6 40.3282 210.536 40.2642C210.472 40.2003 210.422 40.124 210.388 40.04C210.355 39.956 210.339 39.866 210.342 39.7756V30.9803C210.342 28.021 208.665 25.1237 205.375 25.1237C201.195 25.1237 199.477 28.4142 199.622 32.8015C199.622 32.905 199.663 33.0912 199.622 33.1533V39.7549C199.621 39.9298 199.559 40.0988 199.445 40.2316C199.331 40.3643 199.174 40.4522 199.001 40.4792C198.904 40.4921 198.806 40.4839 198.713 40.4553C198.62 40.4267 198.534 40.3783 198.461 40.3134C198.389 40.2486 198.331 40.1688 198.292 40.0796C198.253 39.9903 198.233 39.8937 198.235 39.7963V24.7926C198.235 24.6177 198.298 24.4487 198.412 24.316C198.526 24.1832 198.683 24.0954 198.856 24.0683C198.953 24.0555 199.051 24.0636 199.144 24.0923C199.237 24.1209 199.323 24.1692 199.396 24.2341C199.468 24.2989 199.526 24.3787 199.565 24.4679C199.604 24.5572 199.623 24.6538 199.622 24.7512V27.2553C200.801 25.1444 202.912 23.7579 205.375 23.7579C208.169 23.7579 210.342 25.5376 211.231 28.1245C212.37 25.5583 214.584 23.7579 217.419 23.7579C221.455 23.7579 223.752 27.2553 223.752 30.9803Z"
    fill="white" />
  <path opacity="0.6" d="M17.4252 20.7158L0.248535 28.5178L17.4252 38.6789L34.6225 28.5178L17.4252 20.7158Z"
    fill="white" />
  <path opacity="0.45" d="M0.248535 28.5174L17.4252 38.6785V0L0.248535 28.5174Z" fill="white" />
  <path opacity="0.8" d="M17.4248 0V38.6785L34.6221 28.5174L17.4248 0Z" fill="white" />
  <path opacity="0.45" d="M0.248535 31.7871L17.4252 56V41.9275L0.248535 31.7871Z" fill="white" />
  <path opacity="0.8" d="M17.4248 41.9275V56L34.6221 31.7871L17.4248 41.9275Z" fill="white" />
</svg>