<svg xmlns="http://www.w3.org/2000/svg" width="170" height="48" viewBox="0 0 170 48" fill="none">
  <path fill-rule="evenodd" clip-rule="evenodd"
    d="M167.646 15.7129C167.158 14.5249 167.284 13.4632 166.527 12.6207V12.3426H166.25C166.342 12.9071 166.435 13.4632 166.527 14.0277C165.871 13.657 165.215 13.2779 164.568 12.9071V10.9439C165.039 11.4158 165.501 11.8792 165.972 12.351H166.25C165.207 8.55949 157.419 1.92007 153.072 1.39768V1.67572C154.072 1.89479 154.779 2.12228 155.317 2.79634H155.88C154.787 3.32715 150.851 1.9622 149.994 1.1112H149.43V0.833157C150.641 1.01852 151.861 1.20389 153.072 1.39768C152.147 0.681495 151.104 0.908988 149.708 0.555111C142.24 -1.34909 136.252 2.0633 131.484 4.48989V4.76794C132.375 4.5236 132.905 4.21185 133.443 3.64733C133.931 3.85797 131.568 5.40829 131.198 5.89698H130.634C130.819 5.71162 131.004 5.52625 131.198 5.33246V5.05441C129.701 5.55995 124.537 11.6517 124.747 12.9156C125.075 13.7076 124.781 13.4464 125.588 13.7581C125.042 15.1062 123.503 15.4517 122.788 16.5639C122.477 17.0526 122.536 17.8277 122.224 18.249V19.3696C123.705 19.6898 124.705 19.7909 126.152 19.6477C125.202 20.8862 123.007 22.2091 121.669 23.0179V25.2676C124.722 25.2507 126.841 24.762 129.516 24.7031C127.775 26.5146 124.377 27.9048 122.224 29.1939C122.317 29.7584 122.409 30.3145 122.502 30.8791C126.892 30.7021 130.239 29.1687 134.839 29.1939C133.149 30.8875 126.808 33.9123 124.184 34.5274V35.0919L125.025 35.9345C125.252 36.1535 127.767 35.6733 128.666 35.3699C131.736 34.3336 135.554 33.9376 139.599 33.9629C137.169 36.3473 131.088 38.2684 127.548 39.5828C127.825 39.9535 128.111 40.3327 128.389 40.7034C129.171 40.6613 136.353 39.2963 136.799 39.0182H142.686C141.559 40.4759 134.806 43.3912 132.316 43.5091C132.602 44.1495 132.796 44.1158 133.157 44.6297C134.713 44.5455 135.672 44.0652 136.799 43.7872C139.692 43.071 142.383 43.7366 145.208 43.7872C143.72 45.2364 141.012 45.3375 139.322 46.5929C138.834 46.7783 139.044 46.6519 138.758 46.871C141.811 47.8568 145.839 45.9778 149.127 45.7504C148.455 46.4244 147.025 47.1574 146.041 47.4355V48C147.235 47.941 148.463 47.7641 149.127 47.1574C149.127 47.1574 150.229 47.0985 149.691 46.8794C149.691 46.8794 150.793 46.8204 150.254 46.6013C151.07 46.2643 150.481 46.5002 150.818 45.7588H151.095C151.146 46.5087 151.112 46.0874 151.659 46.8794C152.592 46.694 153.526 46.5087 154.459 46.3149C154.182 46.1127 153.341 45.9441 153.055 45.7504H152.777C153.391 45.3038 154.653 45.3291 155.3 44.9078H155.864C155.485 45.3543 155.695 45.2364 155.023 45.4723C156.183 46.02 157.226 44.6466 158.109 44.0652C161.616 41.765 163.407 39.0604 166.241 36.2041V35.6396H165.964C165.686 36.1114 165.4 36.5748 165.123 37.0466H164.845C165.493 35.4373 165.964 33.9376 167.091 32.8338V32.5558H167.368C167.183 33.0445 167.309 32.8338 167.091 33.1203V33.9629H167.368C168.024 31.4941 168.596 29.1855 168.916 26.919C168.865 27.2307 168.806 27.5257 168.773 27.7784H168.495C168.344 27.4245 168.159 26.9274 167.932 26.6578C168.209 25.8152 168.495 24.9727 168.773 24.1301C169.033 24.5261 169.092 25.0654 169.067 25.6299C169.378 22.3776 169.084 19.1758 167.646 15.7044V15.7129ZM166.805 15.4348C166.712 16.3701 166.62 17.3053 166.527 18.2406C165.4 17.8783 164.189 17.0526 163.441 16.2774C163.197 15.9151 163.861 14.7523 164.004 13.7497C165.283 14.112 165.846 14.8198 166.805 15.4348ZM155.309 23.5824C153.139 23.2875 151.449 22.7062 148.858 22.7399C149.413 21.2064 151.07 20.6587 151.945 19.3696C154.039 19.3696 156.536 19.5634 157.832 20.4902H158.395C157.369 21.5182 156.343 22.5461 155.309 23.5824ZM155.872 24.9895C157.369 25.554 158.866 26.1101 160.354 26.6747C159.699 28.0565 158.117 28.7811 157.268 30.0449C155.822 29.8259 153.543 29.1687 152.5 28.3598C152.012 28.1744 152.222 28.3008 151.936 28.0817C153.366 27.3487 154.804 26.127 155.864 24.9895H155.872ZM147.185 14.0362C148.858 14.2131 152.332 14.053 153.635 14.8787H154.199C153.702 16.2774 152.441 16.8251 151.676 17.9709C150.86 17.9794 150.145 17.9878 149.716 17.6929H143.552C144.763 16.4796 145.982 15.2579 147.193 14.0446L147.185 14.0362ZM146.621 12.9156H138.211C139.237 11.7949 140.263 10.6659 141.298 9.54529C142.98 9.51159 146.344 9.09873 147.462 9.82334H148.867C148.379 11.163 147.269 11.6601 146.621 12.9156ZM154.19 18.249H153.627V17.9709C154.611 17.3222 155.527 16.151 156.15 15.1652C157.739 15.5359 159.328 15.9151 160.918 16.2858C161.01 16.3785 161.103 16.4712 161.195 16.5639V17.1284C160.464 17.8277 160.077 18.7798 159.236 19.378C158.9 19.5718 154.989 18.8135 154.19 18.2574V18.249ZM155.309 13.7581C154.93 13.9519 151.566 13.716 150.826 13.1936H148.303C149.026 12.1235 150.103 11.4579 150.549 10.1014C153.139 10.1351 154.812 10.6912 156.999 10.9439C156.696 12.0646 156.057 13.0504 155.317 13.7497L155.309 13.7581ZM149.699 8.98077C148.488 8.91337 145.065 9.03975 144.09 8.41625H142.408C143.072 7.38832 143.821 6.5289 144.367 5.32403C145.949 5.29876 148.623 5.18922 149.691 5.88855H151.095C150.776 7.22823 150.212 7.91914 149.691 8.98077H149.699ZM141.012 8.41625C139.633 8.44995 137.127 8.71957 136.244 8.1382H134.562C135.462 6.78167 136.79 5.93911 137.648 4.48989C138.312 4.60785 139.919 4.70896 140.449 5.05441H142.971C142.374 6.26771 141.424 7.16083 141.012 8.42468V8.41625ZM139.893 9.25882C138.682 10.4721 137.463 11.6938 136.252 12.9071C134.444 12.9577 131.484 13.6317 130.365 12.9071H128.961C130.054 11.2978 132.072 10.6153 133.166 8.97235C133.737 9.08188 133.704 9.03975 134.007 9.25039H139.893V9.25882ZM136.53 14.0362H144.939C143.922 15.5528 142.063 16.2184 141.012 17.6845C139.33 17.6508 135.966 17.2379 134.848 17.9625H131.484V17.6845C133.241 17.0778 135.327 15.3169 136.53 14.0362ZM141.575 18.8135C144.174 18.7882 147.891 18.3838 149.985 19.0916C149.245 20.2206 147.437 21.7456 146.058 22.1838V22.4618H136.807V22.1838C138.329 21.6614 140.65 20.0268 141.575 18.8135ZM146.899 23.5909C149.237 23.8689 151.575 24.1554 153.904 24.4334C153.164 25.9922 151.238 26.4556 150.263 27.8037C147.555 27.6183 144.847 27.433 142.13 27.2392V26.9611C143.712 26.1691 145.848 24.9474 146.899 23.5909ZM150.54 29.2108C152.163 29.5478 154.266 29.9185 155.309 30.8959H155.872C154.669 32.1766 152.752 32.8928 151.667 34.2662C149.573 33.946 147.773 33.095 145.503 32.8591V32.581C147.235 31.7048 149.237 30.5505 150.549 29.2108H150.54ZM156.705 31.7385C158.109 32.1429 158.462 33.0023 159.505 33.7017C159.598 33.9797 159.69 34.2662 159.783 34.5442C158.462 35.4036 157.445 36.8276 155.855 37.35V37.628C154.88 37.173 153.761 35.8839 153.055 35.1003C152.962 35.0076 152.87 34.915 152.777 34.8223C154.14 34.1314 155.872 32.9771 156.705 31.7301V31.7385ZM158.387 30.8959C158.294 30.8032 158.202 30.7105 158.109 30.6179C159.295 29.9185 160.455 28.958 161.195 27.8121C162.592 28.0902 162.76 28.8485 163.718 29.4973C163.811 29.7753 163.903 30.0618 163.996 30.3398C162.97 31.3678 161.944 32.3957 160.91 33.432C159.968 33.0023 158.925 31.7553 158.387 30.9043V30.8959ZM156.982 23.8773C157.916 22.9421 158.849 22.0068 159.783 21.0716C161.322 21.4929 162.255 22.3776 163.71 22.7567C163.239 24.1133 162.188 24.762 161.465 25.8489C160.481 25.7141 157.251 24.6946 156.982 23.8858V23.8773ZM160.624 20.229V19.951C161.498 19.2938 162.112 18.1984 162.583 17.1452C163.702 17.8024 164.829 18.4596 165.947 19.1084C165.678 20.1616 165.215 20.9873 164.543 21.6361C164.257 21.8636 164.475 21.7372 163.979 21.9142C163.239 21.1727 161.759 20.4902 160.615 20.229H160.624ZM162.306 7.86858H162.583V8.4331C161.868 8.02025 160.682 7.59054 160.06 7.02602C159.337 6.62159 159.219 5.84643 158.942 5.06284C160.287 5.68634 161.801 6.38567 162.306 7.86858ZM159.505 7.86858C161.01 8.28144 162.062 9.14086 163.432 9.55372V12.0814C161.7 11.7781 160.8 10.9018 158.95 10.6743C159.135 9.73908 159.32 8.80383 159.514 7.86858H159.505ZM163.147 12.924C162.835 14.0446 162.306 14.6007 162.028 15.7297C160.346 15.2579 158.664 14.7945 156.982 14.3226C157.487 13.3537 158.092 12.7049 158.387 11.5169C160.363 11.7023 161.49 12.5111 163.155 12.924H163.147ZM151.936 2.81319C153.601 3.00698 155.88 3.35243 156.982 4.22027C157.68 4.56572 157.621 4.86062 158.101 5.34089V6.74797C156.578 6.14975 154.737 5.65264 152.777 5.62736C152.668 4.59943 152.475 3.68946 151.936 3.09966V2.82161V2.81319ZM152.5 6.18345C154.367 6.55418 156.234 6.93334 158.109 7.30406C158.017 8.14663 157.924 8.9892 157.832 9.83176C157.739 9.92445 157.647 10.0171 157.554 10.1098C155.552 9.84019 153.971 9.25882 151.667 9.26724C151.877 7.97812 152.34 7.52313 152.508 6.17503L152.5 6.18345ZM150.54 2.53514C150.725 2.88902 150.843 3.11651 151.104 3.37771V5.34089C149.405 4.74266 146.613 4.591 144.653 4.49832C144.653 3.09123 144.578 2.56042 143.812 1.97062V1.69257C146.058 1.97062 148.295 2.25709 150.54 2.53514ZM148.017 1.41453H148.581C148.051 1.68415 144.098 1.43138 143.257 0.850009C144.99 0.80788 147.033 0.689921 148.026 1.41453H148.017ZM139.33 1.41453C140.507 1.41453 141.231 1.47351 141.853 1.97905C142.728 2.29922 142.686 2.56884 143.257 3.09966V4.50675C142.458 4.36351 140.28 4.37193 139.616 3.94223H138.211C138.716 3.10809 139.179 2.66153 139.33 1.41453ZM137.371 1.97905H137.934V2.54357C137.581 2.92272 137.539 3.04068 137.371 3.66418C136.748 3.48724 136.63 3.45354 136.252 3.09966C136.311 2.88059 136.925 2.56884 137.371 1.97905ZM130.365 7.03444C131.862 5.91383 133.359 4.78479 134.848 3.66418C135.47 3.95065 135.647 4.11074 136.53 4.2287C136.084 5.68634 134.595 7.40517 133.166 7.87701C132.846 8.23089 131.358 7.7422 130.92 7.31249H130.357V7.03444H130.365ZM128.961 8.15506C130.004 8.49208 130.365 8.91337 131.761 8.99762C130.693 10.5142 128.692 11.1967 127.556 12.6459C126.909 12.5785 126.766 12.587 126.438 12.3679C126.16 12.2752 125.874 12.1825 125.597 12.0898C126.009 10.0256 127.935 9.62112 128.961 8.15506ZM124.192 17.9878H123.074C124.091 16.4712 125.95 15.8056 127.001 14.3395H133.729C132.821 15.5781 127.052 19.9341 124.201 17.9878H124.192ZM126.152 23.6077H123.629V23.3297C125.689 22.5966 127.102 20.5239 128.952 19.6814C130.214 19.1 132.577 19.8077 133.721 19.1168H138.203C137.371 20.3217 134.553 22.268 133.157 22.7651C130.979 23.5403 127.985 22.5208 126.152 23.6077ZM127.556 28.6631H126.993V28.3851C129.44 27.2055 131.677 25.1412 133.998 24.1722C135.949 23.3549 139.532 24.6609 141.289 23.6077H143.812C142.921 24.7789 140.121 26.6999 138.767 27.256C135.352 28.6715 130.491 26.8853 127.556 28.6631ZM132.602 33.154H132.325C134.023 31.0223 137.858 30.778 139.616 28.6631C141.113 28.6294 143.964 28.3008 144.939 28.9412H147.74C146.487 30.5589 143.989 31.0223 142.694 32.5895C140.423 32.303 134.562 31.8817 132.602 33.154ZM137.648 37.9313H136.807V37.6533C138.96 36.6169 141.836 35.5806 143.535 34.005C145.486 34.0387 148.186 34.2409 149.422 35.1256C149.514 35.2183 149.607 35.311 149.699 35.4036C147.942 35.9682 146.571 37.805 144.931 38.2094C142.929 38.7065 139.708 36.6675 137.64 37.9313H137.648ZM142.13 42.4222H140.449V42.1442C142.063 41.7145 144.367 40.6781 145.494 39.6165C146.932 40.181 148.135 40.7202 149.422 41.3016C148.749 42.7087 144.014 43.7535 142.13 42.4222ZM146.058 45.5144H145.217V45.2364C145.974 45.0426 146.428 44.8488 146.899 44.3938C147.647 44.4865 148.396 44.5792 149.144 44.6719C148.413 45.1943 146.857 45.0257 146.058 45.5144ZM151.104 44.1073C150.162 44.0568 149.422 43.9557 148.858 43.5428C148.766 43.4501 148.673 43.3575 148.581 43.2648C149.338 43.071 149.792 42.8772 150.263 42.4222C150.675 42.7592 150.767 43.1468 151.104 43.5428V44.1073ZM151.104 40.7371C150.86 40.9983 148.186 39.2289 146.899 39.052V38.4874C148.429 38.0661 150.507 36.8276 151.381 35.6817C152.634 36.0608 153.786 36.9624 154.182 38.2094H154.459C153.921 39.3806 152.256 40.2063 151.095 40.7371H151.104ZM151.667 41.5797C152.651 41.091 153.82 40.459 154.468 39.6165C155.393 41.1415 153.425 42.8351 152.786 43.8293C152.037 43.4249 151.827 42.5233 151.667 41.5797ZM153.349 44.1073C153.971 43.1553 155.132 42.3632 155.595 41.3016C155.687 40.459 155.78 39.6165 155.872 38.7739C156.217 38.0998 159.068 36.4568 159.799 35.6817C160.8 36.3052 160.212 37.5775 160.077 38.7739C158.975 39.8608 158.252 41.5122 156.991 42.4222C155.998 43.1384 154.527 43.2985 153.627 44.1073H153.349ZM163.441 37.9313C161.238 42.0599 159.202 41.9335 155.595 44.3938H154.754V44.1158C157.63 43.349 162.507 38.816 164.004 36.5327C164.29 37.0045 163.752 37.35 163.441 37.9398V37.9313ZM161.759 37.9313H161.195C161.271 37.1815 161.027 35.0498 161.195 34.5611C162.221 33.5331 163.247 32.5052 164.282 31.4689C164.467 31.7132 164.66 32.3535 164.845 32.5895C164.795 35.6733 162.995 36.1114 161.759 37.9229V37.9313ZM164.559 29.2276C163.971 28.284 163.29 27.5509 162.314 26.978C162.768 25.7057 163.861 24.9727 164.559 23.8858C165.762 24.3155 165.93 25.158 166.805 25.8489C166.578 27.1718 165.77 28.3092 164.845 28.9412C164.753 29.0338 164.66 29.1265 164.568 29.2192L164.559 29.2276ZM165.964 33.1624V33.4405H165.686C165.686 32.2524 165.619 31.3003 165.123 30.6347C165.569 29.295 166.485 28.4862 167.082 27.2645C169 28.9243 167.166 32.1008 165.964 33.1624ZM167.646 24.4587V25.0232H167.082C166.553 24.0206 165.779 23.5993 165.4 22.4955C165.947 21.9479 166.325 21.1306 166.519 20.2459C167.721 20.6672 167.73 21.4086 168.478 22.2091C168.361 23.2117 168.167 23.8942 167.637 24.4587H167.646ZM168.764 20.5239H168.201C167.923 19.9931 167.814 19.7488 167.36 19.4033C167.452 18.6534 167.545 17.9035 167.637 17.1537C168.201 17.7435 168.277 18.704 168.756 19.4033V20.5239H168.764ZM169.075 25.6467C169.033 26.0764 168.983 26.5061 168.924 26.9359C168.991 26.523 169.059 26.0764 169.075 25.6467ZM166.805 34.5358H167.082C166.906 34.0471 167.023 34.2578 166.805 33.9713V34.5358ZM166.536 35.0919H166.813C166.637 34.6032 166.754 34.8138 166.536 34.5274V35.0919ZM166.258 35.0919V35.6564H166.536C166.351 35.1677 166.477 35.3784 166.258 35.0919ZM155.048 46.0452V45.7672H154.484C154.77 45.9947 154.552 45.8683 155.048 46.0452Z"
    fill="white" />
  <path
    d="M102.496 7.88976C102.496 7.4765 102.642 7.12371 102.935 6.83141C103.237 6.52902 103.595 6.37783 104.008 6.37783H104.023L119.127 6.28711H119.158C119.571 6.28711 119.924 6.4383 120.216 6.74069C120.518 7.033 120.67 7.38578 120.67 7.79905C120.67 8.21231 120.518 8.57013 120.216 8.87252C119.924 9.16483 119.571 9.31098 119.158 9.31098H119.143L113.125 9.34122L113.049 26.6982V26.7134C113.049 27.1165 112.898 27.4643 112.596 27.7566C112.304 28.0489 111.951 28.1951 111.537 28.1951C111.124 28.1951 110.766 28.0489 110.464 27.7566C110.172 27.4643 110.026 27.1165 110.026 26.7134V26.6831L110.101 9.35634L104.023 9.4017H104.008C103.595 9.4017 103.237 9.25554 102.935 8.96324C102.642 8.66085 102.496 8.30302 102.496 7.88976Z"
    fill="white" />
  <path
    d="M93.7477 6.04492C94.9068 6.04492 96.0005 6.24147 97.0286 6.63458C98.0668 7.02768 98.974 7.57198 99.7501 8.26747C100.526 8.96296 101.116 9.76932 101.519 10.6866C101.61 10.8882 101.655 11.0948 101.655 11.3065C101.655 11.7197 101.504 12.0775 101.202 12.3799C100.909 12.6722 100.556 12.8184 100.143 12.8184C99.871 12.8184 99.5989 12.7327 99.3267 12.5614C99.0546 12.3799 98.8631 12.1632 98.7522 11.9112C98.3692 11.0444 97.7291 10.3539 96.832 9.83988C95.945 9.32582 94.9169 9.06879 93.7477 9.06879C93.1732 9.06879 92.5633 9.13935 91.9182 9.28046C91.2832 9.42158 90.6835 9.63829 90.119 9.9306C89.5546 10.2128 89.096 10.5707 88.7432 11.0041C88.3904 11.4375 88.214 11.9415 88.214 12.516C88.214 12.9797 88.3652 13.3829 88.6676 13.7256C88.97 14.0582 89.3076 14.3203 89.6806 14.5118C90.5575 14.9452 91.5251 15.2476 92.5835 15.4189C93.6519 15.5903 94.7305 15.7566 95.819 15.9179C96.9076 16.0791 97.9206 16.3614 98.858 16.7645C99.4527 17.0165 100.022 17.3643 100.567 17.8078C101.111 18.2513 101.554 18.7905 101.897 19.4256C102.24 20.0606 102.411 20.8065 102.411 21.6632C102.411 22.772 102.144 23.7447 101.61 24.5813C101.076 25.4179 100.375 26.1134 99.5082 26.6677C98.6413 27.2221 97.6989 27.6404 96.6809 27.9226C95.6729 28.1948 94.6851 28.3309 93.7175 28.3309C92.4071 28.3309 91.1774 28.1242 90.0283 27.711C88.8792 27.2876 87.8763 26.6929 87.0196 25.9269C86.1628 25.1508 85.5076 24.2436 85.054 23.2054C84.9633 23.0038 84.918 22.8022 84.918 22.6006C84.918 22.1874 85.0641 21.8346 85.3564 21.5423C85.6588 21.2399 86.0166 21.0887 86.4299 21.0887C86.7121 21.0887 86.9893 21.1794 87.2615 21.3608C87.5336 21.5322 87.7201 21.7489 87.8209 22.011C88.2644 23.029 89.0153 23.8354 90.0737 24.4301C91.132 25.0147 92.3466 25.307 93.7175 25.307C94.5742 25.307 95.436 25.181 96.3029 24.929C97.1697 24.6669 97.8954 24.2688 98.4801 23.7346C99.0748 23.1903 99.3721 22.4998 99.3721 21.6632C99.3721 21.129 99.1907 20.6905 98.8278 20.3478C98.475 19.9951 98.087 19.7279 97.6636 19.5465C96.7061 19.1332 95.683 18.851 94.5944 18.6998C93.5058 18.5386 92.4222 18.3722 91.3437 18.2009C90.2652 18.0195 89.2572 17.6919 88.3198 17.2181C87.5235 16.8149 86.7978 16.2303 86.1426 15.4643C85.4975 14.6882 85.175 13.7054 85.175 12.516C85.175 11.4677 85.427 10.5455 85.931 9.74916C86.445 8.9428 87.1204 8.26747 87.957 7.72317C88.8037 7.16879 89.731 6.75049 90.7389 6.46826C91.7469 6.18604 92.7498 6.04492 93.7477 6.04492Z"
    fill="white" />
  <path
    d="M80.9856 28.1647C80.5723 28.1647 80.2145 28.0186 79.9121 27.7263C79.6198 27.4239 79.4736 27.0661 79.4736 26.6528L79.4585 7.7385C79.4585 7.35547 79.5996 7.00773 79.8818 6.69526C80.1641 6.3828 80.5017 6.22656 80.8948 6.22656C81.3585 6.22656 81.7365 6.37272 82.0288 6.66502C82.3312 6.94725 82.4824 7.30508 82.4824 7.7385L82.4975 26.6528C82.4975 27.0661 82.3463 27.4239 82.0439 27.7263C81.7516 28.0186 81.3988 28.1647 80.9856 28.1647Z"
    fill="white" />
  <path
    d="M75.3339 26.9255C75.3339 27.3186 75.1878 27.6613 74.8955 27.9537C74.6132 28.2359 74.3058 28.377 73.9732 28.377C73.691 28.377 73.444 28.2762 73.2323 28.0746C73.0207 27.8831 72.8745 27.7369 72.7939 27.6362C71.8766 26.9911 71.0803 26.2603 70.405 25.4438C69.7398 24.6173 69.1703 23.7202 68.6965 22.7526C68.2833 21.8858 67.8599 21.2104 67.4265 20.7266C67.0031 20.2428 66.4891 19.9001 65.8843 19.6985C65.2795 19.4969 64.4933 19.3911 63.5257 19.381L62.1498 19.3659L62.1649 26.6836V26.7139C62.1649 27.1171 62.0137 27.4698 61.7114 27.7722C61.419 28.0746 61.0663 28.2258 60.653 28.2258C60.2397 28.2258 59.8819 28.0645 59.5795 27.742C59.2872 27.4194 59.1411 27.0364 59.1411 26.5929L59.0957 7.82979C59.0957 7.40645 59.2419 7.05366 59.5342 6.77143C59.8366 6.47913 60.1893 6.32793 60.5925 6.31785L64.6143 6.30273H64.962C66.6957 6.30273 68.2429 6.55976 69.6037 7.07382C70.9644 7.5778 72.0379 8.33881 72.8241 9.35684C73.6103 10.3648 74.0034 11.6197 74.0034 13.1216C74.0034 14.0892 73.8018 14.951 73.3986 15.707C73.0055 16.4629 72.4864 17.103 71.8413 17.6271C71.1963 18.1513 70.5008 18.5595 69.7549 18.8518C70.0976 19.2852 70.4403 19.8194 70.783 20.4545C71.3676 21.5733 71.9371 22.5661 72.4915 23.433C73.0459 24.2897 73.7766 25.0457 74.6838 25.7009C74.8652 25.8218 75.0164 25.9932 75.1374 26.2149C75.2684 26.4266 75.3339 26.6635 75.3339 26.9255ZM65.0376 9.32661H62.1196L62.1498 16.5537L65.0679 16.5234C66.9225 16.5033 68.374 16.221 69.4222 15.6767C70.4806 15.1324 71.0098 14.2606 71.0098 13.0611C71.0098 11.8314 70.4504 10.9041 69.3315 10.2791C68.2127 9.64411 66.7814 9.32661 65.0376 9.32661Z"
    fill="white" />
  <path
    d="M38.4668 7.81467C38.4668 7.43165 38.6079 7.08894 38.8901 6.78655C39.1824 6.48417 39.5201 6.33297 39.9031 6.33297C40.3769 6.33297 40.7549 6.46401 41.0371 6.72608C41.3294 6.97807 41.4806 7.34093 41.4907 7.81467L41.5965 18.746C41.6167 20.9232 42.0551 22.6417 42.9119 23.9017C43.7687 25.1616 45.1899 25.7916 47.1756 25.7916C48.6472 25.7916 49.8265 25.5043 50.7135 24.9298C51.6005 24.3552 52.2406 23.5539 52.6337 22.5258C53.0268 21.4977 53.2233 20.3133 53.2233 18.9728L53.1931 7.79955V7.78443C53.1931 7.37117 53.3392 7.02342 53.6315 6.7412C53.9239 6.44889 54.2766 6.30273 54.6899 6.30273C55.1032 6.30273 55.461 6.44889 55.7634 6.7412C56.0658 7.02342 56.217 7.37117 56.217 7.78443V7.79955L56.2472 18.9728C56.2472 21.9966 55.4963 24.3905 53.9944 26.1545C52.5026 27.9184 50.2498 28.8003 47.236 28.8003C45.2907 28.8003 43.683 28.372 42.413 27.5152C41.1429 26.6484 40.1904 25.464 39.5554 23.9621C38.9204 22.4502 38.5928 20.7266 38.5726 18.7913L38.4668 7.82979V7.81467Z"
    fill="white" />
  <path
    d="M21.1851 7.81423C21.1851 7.41105 21.3312 7.06835 21.6235 6.78612C21.9259 6.49381 22.2837 6.34766 22.697 6.34766L35.6543 6.36278H35.6694C36.0827 6.36278 36.4355 6.51397 36.7278 6.81636C37.0302 7.10866 37.1814 7.46145 37.1814 7.87471C37.1814 8.28797 37.0302 8.6458 36.7278 8.94819C36.4355 9.24049 36.0827 9.38665 35.6694 9.38665H35.6543L24.2089 9.37153L24.2241 15.5705L34.4145 15.6461C34.8479 15.6461 35.2058 15.7973 35.488 16.0996C35.7803 16.402 35.9265 16.7901 35.9265 17.2638C35.9265 17.667 35.7702 18.0097 35.4578 18.292C35.1453 18.5641 34.7975 18.7002 34.4145 18.7002H34.3994L24.2392 18.6246L24.2543 25.0201L35.6543 25.0049H35.6694C36.0827 25.0049 36.4355 25.1561 36.7278 25.4585C37.0302 25.7508 37.1814 26.1036 37.1814 26.5169C37.1814 26.9301 37.0302 27.288 36.7278 27.5904C36.4355 27.8827 36.0827 28.0288 35.6694 28.0288H35.6543L22.7424 28.0439C22.3291 28.0439 21.9713 27.8978 21.6689 27.6055C21.3766 27.3031 21.2304 26.9503 21.2304 26.5471L21.1851 7.81423Z"
    fill="white" />
  <path
    d="M0.949219 7.31538C0.949219 6.92228 1.11049 6.60477 1.43304 6.36286C1.75559 6.12095 2.06805 6 2.37044 6C2.79378 6.01008 3.16673 6.14615 3.48928 6.40822C3.81182 6.67029 3.9731 7.02308 3.9731 7.46658L3.98822 15.9637L15.2975 15.9485L15.3126 7.46658C15.2824 7.06339 15.4185 6.72069 15.7209 6.43846C16.0333 6.14615 16.3962 6 16.8095 6C17.2227 6 17.5805 6.14111 17.8829 6.42334C18.1853 6.70557 18.3365 7.05332 18.3365 7.46658L18.3214 26.6833C18.3214 27.0865 18.1702 27.4342 17.8678 27.7265C17.5755 28.0087 17.2227 28.1499 16.8095 28.1499C16.3962 28.1499 16.0384 28.0138 15.736 27.7416C15.4437 27.4594 15.2975 27.1167 15.2975 26.7135V19.0026L4.00334 19.0178L4.01846 26.7286C4.01846 27.1419 3.8723 27.4896 3.57999 27.7719C3.28768 28.0541 2.92986 28.1952 2.50652 28.1952C2.09325 28.1952 1.73543 28.0541 1.43304 27.7719C1.14073 27.4796 0.994577 27.1318 0.994577 26.7286C0.984497 23.5233 0.974418 20.318 0.964338 17.1127C0.964338 13.8973 0.959298 10.687 0.949219 7.4817V7.31538Z"
    fill="white" />
  <path
    d="M118.83 42.1473C118.15 42.1473 117.534 41.9785 116.981 41.641C116.432 41.2988 115.994 40.8441 115.666 40.277C115.342 39.7098 115.181 39.0887 115.181 38.4137C115.181 37.7715 115.333 37.1785 115.638 36.6348C115.947 36.0863 116.362 35.6457 116.882 35.3129C117.407 34.9754 117.993 34.8066 118.64 34.8066C119.235 34.8066 119.781 34.9543 120.278 35.2496C120.775 35.5449 121.171 35.941 121.467 36.4379C121.767 36.9301 121.917 37.4809 121.917 38.0902C121.917 38.2215 121.905 38.3457 121.881 38.4629C121.858 38.5801 121.778 38.6387 121.642 38.6387L115.715 38.6457C115.757 39.1801 115.917 39.6723 116.193 40.1223C116.474 40.5723 116.842 40.9355 117.297 41.2121C117.752 41.484 118.26 41.6199 118.823 41.6199C119.273 41.6199 119.709 41.5215 120.131 41.3246C120.557 41.123 120.913 40.8488 121.199 40.502C121.251 40.4363 121.321 40.4035 121.41 40.4035C121.485 40.4035 121.546 40.4293 121.593 40.4809C121.645 40.5324 121.671 40.5957 121.671 40.6707C121.671 40.7316 121.649 40.7879 121.607 40.8395C121.27 41.252 120.855 41.573 120.363 41.8027C119.871 42.0324 119.36 42.1473 118.83 42.1473ZM121.389 38.0973C121.389 37.5863 121.263 37.1223 121.01 36.7051C120.761 36.2879 120.428 35.9551 120.011 35.7066C119.594 35.4582 119.135 35.334 118.633 35.334C118.108 35.334 117.635 35.4629 117.213 35.7207C116.791 35.9785 116.449 36.3184 116.186 36.7402C115.924 37.1621 115.769 37.6215 115.722 38.1184L121.389 38.1113V38.0973Z"
    fill="white" fill-opacity="0.5" />
  <path
    d="M111.635 34.8701C112.249 34.8701 112.802 34.999 113.294 35.2568C113.791 35.51 114.161 35.8615 114.405 36.3115C114.424 36.349 114.433 36.3889 114.433 36.4311C114.433 36.4967 114.407 36.5553 114.356 36.6068C114.309 36.6537 114.253 36.6771 114.187 36.6771C114.089 36.6771 114.016 36.6326 113.969 36.5436C113.772 36.1686 113.465 35.8779 113.048 35.6717C112.631 35.4654 112.16 35.3623 111.635 35.3623C111.363 35.3623 111.075 35.3928 110.77 35.4537C110.47 35.51 110.186 35.599 109.919 35.7209C109.657 35.8428 109.441 36.0021 109.272 36.199C109.108 36.3959 109.026 36.635 109.026 36.9162C109.026 37.174 109.108 37.3803 109.272 37.535C109.441 37.685 109.619 37.7998 109.807 37.8795C110.172 38.0295 110.566 38.1232 110.988 38.1607C111.414 38.1936 111.843 38.224 112.275 38.2521C112.71 38.2803 113.121 38.3623 113.505 38.4982C113.81 38.6014 114.086 38.7725 114.335 39.0115C114.583 39.2506 114.707 39.574 114.707 39.9818C114.707 40.474 114.555 40.8748 114.25 41.1842C113.95 41.4936 113.566 41.7209 113.097 41.8662C112.633 42.0068 112.157 42.0771 111.67 42.0771C110.948 42.0771 110.299 41.9436 109.722 41.6764C109.15 41.4045 108.726 41.0037 108.45 40.474C108.431 40.4365 108.421 40.399 108.421 40.3615C108.421 40.2959 108.445 40.2396 108.492 40.1928C108.543 40.1412 108.602 40.1154 108.667 40.1154C108.771 40.1154 108.843 40.16 108.885 40.249C109.12 40.7037 109.483 41.0412 109.975 41.2615C110.467 41.4771 111.032 41.585 111.67 41.585C112.068 41.585 112.462 41.5334 112.851 41.4303C113.24 41.3271 113.564 41.1584 113.821 40.924C114.084 40.685 114.215 40.3709 114.215 39.9818C114.215 39.6959 114.124 39.4732 113.941 39.3139C113.763 39.1545 113.564 39.0373 113.343 38.9623C112.954 38.8264 112.544 38.7443 112.113 38.7162C111.682 38.6834 111.253 38.6506 110.826 38.6178C110.4 38.5803 109.996 38.4865 109.617 38.3365C109.35 38.2287 109.101 38.0576 108.871 37.8232C108.646 37.5889 108.534 37.2865 108.534 36.9162C108.534 36.5506 108.628 36.2389 108.815 35.9811C109.007 35.7232 109.256 35.5123 109.56 35.3482C109.87 35.1842 110.205 35.0646 110.566 34.9896C110.932 34.91 111.288 34.8701 111.635 34.8701Z"
    fill="white" fill-opacity="0.5" />
  <path
    d="M107.392 34.8633C107.57 34.8633 107.659 34.9523 107.659 35.1305L107.638 41.8312H107.645C107.645 41.9062 107.619 41.9695 107.568 42.0211C107.516 42.0727 107.453 42.0984 107.378 42.0984C107.303 42.0984 107.24 42.0727 107.188 42.0211C107.137 41.9695 107.111 41.9062 107.111 41.8312V41.8242L107.118 40.3547C106.846 40.8328 106.455 41.2406 105.944 41.5781C105.437 41.9109 104.882 42.0773 104.277 42.0773C103.808 42.0773 103.373 41.9812 102.969 41.7891C102.566 41.5922 102.215 41.325 101.915 40.9875C101.615 40.65 101.38 40.2656 101.212 39.8344C101.043 39.4031 100.958 38.9531 100.958 38.4844C100.958 38.0156 101.041 37.5656 101.205 37.1344C101.373 36.6984 101.608 36.3117 101.908 35.9742C102.212 35.632 102.569 35.3625 102.976 35.1656C103.384 34.9687 103.83 34.8703 104.312 34.8703C104.739 34.8703 105.13 34.9711 105.487 35.1727C105.848 35.3695 106.166 35.6203 106.443 35.925C106.724 36.2297 106.951 36.5414 107.125 36.8602L107.132 35.1305C107.132 34.9523 107.219 34.8633 107.392 34.8633ZM107.076 38.4633C107.076 37.9242 106.956 37.4227 106.717 36.9586C106.483 36.4945 106.157 36.1195 105.74 35.8336C105.327 35.543 104.854 35.3977 104.319 35.3977C103.78 35.3977 103.295 35.543 102.864 35.8336C102.437 36.1242 102.1 36.5062 101.851 36.9797C101.608 37.4484 101.486 37.95 101.486 38.4844C101.486 39.0187 101.608 39.5203 101.851 39.9891C102.095 40.4531 102.428 40.8305 102.85 41.1211C103.272 41.407 103.748 41.55 104.277 41.55C104.812 41.55 105.29 41.4047 105.712 41.1141C106.134 40.8234 106.466 40.4437 106.71 39.975C106.954 39.5062 107.076 39.0023 107.076 38.4633Z"
    fill="white" fill-opacity="0.5" />
  <path
    d="M97.3705 34.8842C98.008 34.8842 98.5705 35.0576 99.058 35.4045C99.5455 35.7467 99.9275 36.1967 100.204 36.7545C100.481 37.3076 100.619 37.9006 100.619 38.5334C100.619 39.1615 100.485 39.7451 100.218 40.2842C99.9557 40.8232 99.5854 41.2592 99.1072 41.592C98.6291 41.9201 98.0736 42.0842 97.4408 42.0842C97.0002 42.0842 96.5994 41.9975 96.2385 41.824C95.8775 41.6459 95.5635 41.4162 95.2963 41.135C95.0338 40.8537 94.8299 40.5584 94.6846 40.249V41.817C94.6846 41.9904 94.5979 42.0771 94.4244 42.0771C94.3494 42.0771 94.2861 42.0514 94.2346 41.9998C94.183 41.9529 94.1572 41.892 94.1572 41.817V32.599C94.1572 32.524 94.183 32.4631 94.2346 32.4162C94.2861 32.3646 94.3494 32.3389 94.4244 32.3389C94.5979 32.3389 94.6846 32.4256 94.6846 32.599V36.7404C94.8064 36.417 95.001 36.1146 95.2682 35.8334C95.54 35.5521 95.8564 35.3248 96.2174 35.1514C96.583 34.9732 96.9674 34.8842 97.3705 34.8842ZM100.092 38.5264C100.092 37.992 99.9744 37.4881 99.74 37.0146C99.5104 36.5365 99.1916 36.1498 98.7838 35.8545C98.376 35.5592 97.9049 35.4115 97.3705 35.4115C96.8455 35.4115 96.3814 35.5545 95.9783 35.8404C95.5752 36.1264 95.2588 36.5014 95.0291 36.9654C94.7994 37.4248 94.6846 37.9217 94.6846 38.4561C94.6846 38.9904 94.7947 39.4943 95.015 39.9678C95.24 40.4412 95.5588 40.8256 95.9713 41.1209C96.3838 41.4115 96.8713 41.5568 97.4338 41.5568C97.9682 41.5568 98.4346 41.4162 98.833 41.135C99.2314 40.8537 99.5408 40.4834 99.7611 40.024C99.9814 39.56 100.092 39.0607 100.092 38.5264Z"
    fill="white" fill-opacity="0.5" />
  <path
    d="M92.9873 34.8633C93.1654 34.8633 93.2545 34.9523 93.2545 35.1305L93.2334 41.8312H93.2404C93.2404 41.9062 93.2147 41.9695 93.1631 42.0211C93.1115 42.0727 93.0482 42.0984 92.9732 42.0984C92.8982 42.0984 92.835 42.0727 92.7834 42.0211C92.7318 41.9695 92.7061 41.9062 92.7061 41.8312V41.8242L92.7131 40.3547C92.4412 40.8328 92.0498 41.2406 91.5389 41.5781C91.0326 41.9109 90.4772 42.0773 89.8725 42.0773C89.4037 42.0773 88.9678 41.9812 88.5646 41.7891C88.1615 41.5922 87.81 41.325 87.51 40.9875C87.21 40.65 86.9756 40.2656 86.8068 39.8344C86.6381 39.4031 86.5537 38.9531 86.5537 38.4844C86.5537 38.0156 86.6357 37.5656 86.7998 37.1344C86.9686 36.6984 87.2029 36.3117 87.5029 35.9742C87.8076 35.632 88.1639 35.3625 88.5717 35.1656C88.9795 34.9687 89.4248 34.8703 89.9076 34.8703C90.3342 34.8703 90.7256 34.9711 91.0818 35.1727C91.4428 35.3695 91.7615 35.6203 92.0381 35.925C92.3193 36.2297 92.5467 36.5414 92.7201 36.8602L92.7272 35.1305C92.7272 34.9523 92.8139 34.8633 92.9873 34.8633ZM92.6709 38.4633C92.6709 37.9242 92.5514 37.4227 92.3123 36.9586C92.0779 36.4945 91.7522 36.1195 91.335 35.8336C90.9225 35.543 90.449 35.3977 89.9147 35.3977C89.3756 35.3977 88.8904 35.543 88.4592 35.8336C88.0326 36.1242 87.6951 36.5062 87.4467 36.9797C87.2029 37.4484 87.0811 37.95 87.0811 38.4844C87.0811 39.0187 87.2029 39.5203 87.4467 39.9891C87.6904 40.4531 88.0232 40.8305 88.4451 41.1211C88.867 41.407 89.3428 41.55 89.8725 41.55C90.4068 41.55 90.885 41.4047 91.3068 41.1141C91.7287 40.8234 92.0615 40.4437 92.3053 39.975C92.549 39.5062 92.6709 39.0023 92.6709 38.4633Z"
    fill="white" fill-opacity="0.5" />
  <path
    d="M85.1939 42.0842C84.7063 42.0842 84.3384 41.9295 84.0899 41.6201C83.8415 41.3107 83.7173 40.91 83.7173 40.4178V40.3686L83.7313 35.4115H82.297C82.222 35.4115 82.1587 35.3881 82.1071 35.3412C82.0556 35.2896 82.0298 35.2264 82.0298 35.1514C82.0298 35.0764 82.0556 35.0131 82.1071 34.9615C82.1587 34.91 82.222 34.8842 82.297 34.8842H83.7384V33.0631C83.7384 32.9881 83.7642 32.9248 83.8157 32.8732C83.8673 32.8217 83.9306 32.7959 84.0056 32.7959C84.0806 32.7959 84.1415 32.8217 84.1884 32.8732C84.2399 32.9248 84.2657 32.9881 84.2657 33.0631V34.8842H85.7423C85.9157 34.8842 86.0024 34.9709 86.0024 35.1443C86.0024 35.2193 85.9767 35.2826 85.9251 35.3342C85.8782 35.3857 85.8173 35.4115 85.7423 35.4115H84.2587L84.2446 40.3686V40.3756C84.2446 40.7178 84.3126 40.999 84.4485 41.2193C84.5845 41.4396 84.8165 41.5498 85.1446 41.5498C85.4681 41.5498 85.7564 41.4537 86.0095 41.2615C86.0657 41.224 86.1196 41.2053 86.1712 41.2053C86.2462 41.2053 86.3095 41.2311 86.361 41.2826C86.4126 41.3342 86.4384 41.3975 86.4384 41.4725C86.4384 41.5568 86.4009 41.6271 86.3259 41.6834C86.1759 41.8006 86.0048 41.8967 85.8126 41.9717C85.6204 42.0467 85.4142 42.0842 85.1939 42.0842Z"
    fill="white" fill-opacity="0.5" />
  <path
    d="M81.3525 34.8633C81.5307 34.8633 81.6197 34.9523 81.6197 35.1305L81.5986 41.8312H81.6057C81.6057 41.9062 81.5799 41.9695 81.5283 42.0211C81.4768 42.0727 81.4135 42.0984 81.3385 42.0984C81.2635 42.0984 81.2002 42.0727 81.1486 42.0211C81.0971 41.9695 81.0713 41.9062 81.0713 41.8312V41.8242L81.0783 40.3547C80.8064 40.8328 80.415 41.2406 79.9041 41.5781C79.3979 41.9109 78.8424 42.0773 78.2377 42.0773C77.7689 42.0773 77.333 41.9812 76.9299 41.7891C76.5268 41.5922 76.1752 41.325 75.8752 40.9875C75.5752 40.65 75.3408 40.2656 75.1721 39.8344C75.0033 39.4031 74.9189 38.9531 74.9189 38.4844C74.9189 38.0156 75.001 37.5656 75.165 37.1344C75.3338 36.6984 75.5682 36.3117 75.8682 35.9742C76.1729 35.632 76.5291 35.3625 76.9369 35.1656C77.3447 34.9687 77.79 34.8703 78.2729 34.8703C78.6994 34.8703 79.0908 34.9711 79.4471 35.1727C79.808 35.3695 80.1268 35.6203 80.4033 35.925C80.6846 36.2297 80.9119 36.5414 81.0854 36.8602L81.0924 35.1305C81.0924 34.9523 81.1791 34.8633 81.3525 34.8633ZM81.0361 38.4633C81.0361 37.9242 80.9166 37.4227 80.6775 36.9586C80.4432 36.4945 80.1174 36.1195 79.7002 35.8336C79.2877 35.543 78.8143 35.3977 78.2799 35.3977C77.7408 35.3977 77.2557 35.543 76.8244 35.8336C76.3979 36.1242 76.0604 36.5062 75.8119 36.9797C75.5682 37.4484 75.4463 37.95 75.4463 38.4844C75.4463 39.0187 75.5682 39.5203 75.8119 39.9891C76.0557 40.4531 76.3885 40.8305 76.8104 41.1211C77.2322 41.407 77.708 41.55 78.2377 41.55C78.7721 41.55 79.2502 41.4047 79.6721 41.1141C80.0939 40.8234 80.4268 40.4437 80.6705 39.975C80.9143 39.5062 81.0361 39.0023 81.0361 38.4633Z"
    fill="white" fill-opacity="0.5" />
  <path
    d="M71.0844 34.8988C71.4875 34.8988 71.8695 34.9879 72.2305 35.166C72.5961 35.3395 72.9148 35.5668 73.1867 35.848C73.4586 36.1293 73.6531 36.4316 73.7703 36.7551V32.6137C73.7703 32.4402 73.857 32.3535 74.0305 32.3535C74.1055 32.3535 74.1688 32.3793 74.2203 32.4309C74.2719 32.4777 74.2977 32.5387 74.2977 32.6137V41.8316C74.2977 41.9066 74.2719 41.9676 74.2203 42.0145C74.1688 42.066 74.1055 42.0918 74.0305 42.0918C73.857 42.0918 73.7703 42.0051 73.7703 41.8316V40.2637C73.6297 40.573 73.4258 40.8684 73.1586 41.1496C72.8961 41.4309 72.582 41.6605 72.2164 41.8387C71.8555 42.0121 71.4547 42.0988 71.0141 42.0988C70.3813 42.0988 69.8258 41.9348 69.3477 41.6066C68.8695 41.2738 68.4969 40.8379 68.2297 40.2988C67.9672 39.7598 67.8359 39.1762 67.8359 38.548C67.8359 37.9152 67.9742 37.3223 68.2508 36.7691C68.5273 36.2113 68.9094 35.7613 69.3969 35.4191C69.8891 35.0723 70.4516 34.8988 71.0844 34.8988ZM68.3633 38.541C68.3633 39.0754 68.4734 39.5746 68.6938 40.0387C68.9141 40.498 69.2234 40.8684 69.6219 41.1496C70.025 41.4309 70.4914 41.5715 71.0211 41.5715C71.5883 41.5715 72.0758 41.4262 72.4836 41.1355C72.8961 40.8402 73.2125 40.4559 73.4328 39.9824C73.6578 39.509 73.7703 39.0051 73.7703 38.4707C73.7703 37.9363 73.6555 37.4395 73.4258 36.9801C73.1961 36.516 72.8797 36.141 72.4766 35.8551C72.0734 35.5691 71.6094 35.4262 71.0844 35.4262C70.5547 35.4262 70.0836 35.5738 69.6711 35.8691C69.2633 36.1645 68.9422 36.5512 68.7078 37.0293C68.4781 37.5027 68.3633 38.0066 68.3633 38.541Z"
    fill="white" fill-opacity="0.5" />
  <path
    d="M61.2708 42.1473C60.5911 42.1473 59.9747 41.9785 59.4216 41.641C58.8731 41.2988 58.4349 40.8441 58.1067 40.277C57.7833 39.7098 57.6216 39.0887 57.6216 38.4137C57.6216 37.7715 57.7739 37.1785 58.0786 36.6348C58.388 36.0863 58.8028 35.6457 59.3231 35.3129C59.8481 34.9754 60.4341 34.8066 61.081 34.8066C61.6763 34.8066 62.2224 34.9543 62.7192 35.2496C63.2161 35.5449 63.6122 35.941 63.9075 36.4379C64.2075 36.9301 64.3575 37.4809 64.3575 38.0902C64.3575 38.2215 64.3458 38.3457 64.3224 38.4629C64.2989 38.5801 64.2192 38.6387 64.0833 38.6387L58.156 38.6457C58.1981 39.1801 58.3575 39.6723 58.6341 40.1223C58.9153 40.5723 59.2833 40.9355 59.738 41.2121C60.1927 41.484 60.7013 41.6199 61.2638 41.6199C61.7138 41.6199 62.1497 41.5215 62.5716 41.3246C62.9981 41.123 63.3544 40.8488 63.6403 40.502C63.6919 40.4363 63.7622 40.4035 63.8513 40.4035C63.9263 40.4035 63.9872 40.4293 64.0341 40.4809C64.0856 40.5324 64.1114 40.5957 64.1114 40.6707C64.1114 40.7316 64.0903 40.7879 64.0481 40.8395C63.7106 41.252 63.2958 41.573 62.8036 41.8027C62.3114 42.0324 61.8005 42.1473 61.2708 42.1473ZM63.8302 38.0973C63.8302 37.5863 63.7036 37.1223 63.4505 36.7051C63.2021 36.2879 62.8692 35.9551 62.4521 35.7066C62.0349 35.4582 61.5755 35.334 61.0739 35.334C60.5489 35.334 60.0755 35.4629 59.6536 35.7207C59.2317 35.9785 58.8896 36.3184 58.6271 36.7402C58.3646 37.1621 58.2099 37.6215 58.163 38.1184L63.8302 38.1113V38.0973Z"
    fill="white" fill-opacity="0.5" />
  <path
    d="M51.3612 34.8418H51.3683C51.4854 34.8418 51.5651 34.898 51.6073 35.0105L54.244 41.198L57.3448 35.0176C57.3964 34.9191 57.4761 34.8699 57.5839 34.8699C57.6589 34.8699 57.7198 34.8957 57.7667 34.9473C57.8183 34.9988 57.844 35.0621 57.844 35.1371C57.844 35.1793 57.8347 35.2191 57.8159 35.2566L54.462 41.9504C54.4151 42.0441 54.3355 42.091 54.223 42.091C54.1058 42.091 54.0261 42.0371 53.9839 41.9293L51.1222 35.2074C51.1081 35.1793 51.1011 35.1465 51.1011 35.109C51.1011 35.0387 51.1269 34.9777 51.1784 34.9262C51.23 34.8699 51.2909 34.8418 51.3612 34.8418Z"
    fill="white" fill-opacity="0.5" />
  <path
    d="M50.1704 32.6059C50.1704 32.5355 50.1938 32.4746 50.2407 32.423C50.2923 32.3715 50.3556 32.3457 50.4306 32.3457C50.5056 32.3457 50.5688 32.3715 50.6204 32.423C50.672 32.4699 50.6978 32.5309 50.6978 32.6059V33.0629C50.6978 33.1379 50.672 33.2012 50.6204 33.2527C50.5688 33.3043 50.5056 33.3301 50.4306 33.3301C50.3556 33.3301 50.2923 33.3043 50.2407 33.2527C50.1938 33.2012 50.1704 33.1379 50.1704 33.0629V32.6059ZM50.4376 34.877C50.5126 34.877 50.5735 34.9027 50.6204 34.9543C50.672 35.0059 50.6978 35.0691 50.6978 35.1441L50.6626 41.8168V41.8238C50.6626 41.9973 50.5759 42.084 50.4024 42.084C50.2243 42.084 50.1353 41.9949 50.1353 41.8168L50.1704 35.1441C50.1704 35.0691 50.1962 35.0059 50.2478 34.9543C50.2993 34.9027 50.3626 34.877 50.4376 34.877Z"
    fill="white" fill-opacity="0.5" />
  <path
    d="M48.4946 42.0842C48.0071 42.0842 47.6392 41.9295 47.3907 41.6201C47.1423 41.3107 47.0181 40.91 47.0181 40.4178V40.3686L47.0321 35.4115H45.5978C45.5228 35.4115 45.4595 35.3881 45.4079 35.3412C45.3563 35.2896 45.3306 35.2264 45.3306 35.1514C45.3306 35.0764 45.3563 35.0131 45.4079 34.9615C45.4595 34.91 45.5228 34.8842 45.5978 34.8842H47.0392V33.0631C47.0392 32.9881 47.0649 32.9248 47.1165 32.8732C47.1681 32.8217 47.2313 32.7959 47.3063 32.7959C47.3813 32.7959 47.4423 32.8217 47.4892 32.8732C47.5407 32.9248 47.5665 32.9881 47.5665 33.0631V34.8842H49.0431C49.2165 34.8842 49.3032 34.9709 49.3032 35.1443C49.3032 35.2193 49.2774 35.2826 49.2259 35.3342C49.179 35.3857 49.1181 35.4115 49.0431 35.4115H47.5595L47.5454 40.3686V40.3756C47.5454 40.7178 47.6134 40.999 47.7493 41.2193C47.8853 41.4396 48.1173 41.5498 48.4454 41.5498C48.7689 41.5498 49.0571 41.4537 49.3103 41.2615C49.3665 41.224 49.4204 41.2053 49.472 41.2053C49.547 41.2053 49.6103 41.2311 49.6618 41.2826C49.7134 41.3342 49.7392 41.3975 49.7392 41.4725C49.7392 41.5568 49.7017 41.6271 49.6267 41.6834C49.4767 41.8006 49.3056 41.8967 49.1134 41.9717C48.9212 42.0467 48.7149 42.0842 48.4946 42.0842Z"
    fill="white" fill-opacity="0.5" />
  <path
    d="M44.6528 34.8633C44.831 34.8633 44.92 34.9523 44.92 35.1305L44.8989 41.8312H44.906C44.906 41.9062 44.8802 41.9695 44.8286 42.0211C44.7771 42.0727 44.7138 42.0984 44.6388 42.0984C44.5638 42.0984 44.5005 42.0727 44.4489 42.0211C44.3974 41.9695 44.3716 41.9062 44.3716 41.8312V41.8242L44.3786 40.3547C44.1067 40.8328 43.7153 41.2406 43.2044 41.5781C42.6982 41.9109 42.1427 42.0773 41.538 42.0773C41.0692 42.0773 40.6333 41.9812 40.2302 41.7891C39.8271 41.5922 39.4755 41.325 39.1755 40.9875C38.8755 40.65 38.6411 40.2656 38.4724 39.8344C38.3036 39.4031 38.2192 38.9531 38.2192 38.4844C38.2192 38.0156 38.3013 37.5656 38.4653 37.1344C38.6341 36.6984 38.8685 36.3117 39.1685 35.9742C39.4731 35.632 39.8294 35.3625 40.2372 35.1656C40.645 34.9687 41.0903 34.8703 41.5731 34.8703C41.9997 34.8703 42.3911 34.9711 42.7474 35.1727C43.1083 35.3695 43.4271 35.6203 43.7036 35.925C43.9849 36.2297 44.2122 36.5414 44.3857 36.8602L44.3927 35.1305C44.3927 34.9523 44.4794 34.8633 44.6528 34.8633ZM44.3364 38.4633C44.3364 37.9242 44.2169 37.4227 43.9778 36.9586C43.7435 36.4945 43.4177 36.1195 43.0005 35.8336C42.588 35.543 42.1146 35.3977 41.5802 35.3977C41.0411 35.3977 40.556 35.543 40.1247 35.8336C39.6981 36.1242 39.3606 36.5062 39.1122 36.9797C38.8685 37.4484 38.7466 37.95 38.7466 38.4844C38.7466 39.0187 38.8685 39.5203 39.1122 39.9891C39.356 40.4531 39.6888 40.8305 40.1106 41.1211C40.5325 41.407 41.0083 41.55 41.538 41.55C42.0724 41.55 42.5505 41.4047 42.9724 41.1141C43.3942 40.8234 43.7271 40.4437 43.9708 39.975C44.2146 39.5062 44.3364 39.0023 44.3364 38.4633Z"
    fill="white" fill-opacity="0.5" />
  <path
    d="M35.7346 36.5791C35.8658 36.2791 36.051 36.0002 36.29 35.7424C36.5291 35.4799 36.815 35.2666 37.1479 35.1025C37.4854 34.9385 37.8627 34.8564 38.2799 34.8564C38.4018 34.8564 38.5072 34.8729 38.5963 34.9057C38.6854 34.9385 38.7299 35.0135 38.7299 35.1307C38.7299 35.3041 38.6432 35.3908 38.4697 35.3908C38.4229 35.3908 38.3783 35.3885 38.3361 35.3838C38.2939 35.3791 38.2518 35.3768 38.2096 35.3768C37.8205 35.3768 37.4736 35.4729 37.1689 35.665C36.8643 35.8525 36.6041 36.1057 36.3885 36.4244C36.1775 36.7432 36.0158 37.0947 35.9033 37.4791C35.7908 37.8635 35.7346 38.2525 35.7346 38.6463V41.8174C35.7346 41.8924 35.7088 41.9557 35.6572 42.0072C35.6057 42.0588 35.5424 42.0846 35.4674 42.0846C35.3924 42.0846 35.3291 42.0588 35.2775 42.0072C35.226 41.9557 35.2002 41.8924 35.2002 41.8174V35.1869C35.2002 35.1119 35.226 35.051 35.2775 35.0041C35.3291 34.9525 35.3924 34.9268 35.4674 34.9268C35.5424 34.9268 35.6057 34.9525 35.6572 35.0041C35.7088 35.051 35.7346 35.1119 35.7346 35.1869V36.5791Z"
    fill="white" fill-opacity="0.5" />
  <path
    d="M31.4993 42.1473C30.8196 42.1473 30.2032 41.9785 29.6501 41.641C29.1017 41.2988 28.6634 40.8441 28.3353 40.277C28.0118 39.7098 27.8501 39.0887 27.8501 38.4137C27.8501 37.7715 28.0024 37.1785 28.3071 36.6348C28.6165 36.0863 29.0313 35.6457 29.5517 35.3129C30.0767 34.9754 30.6626 34.8066 31.3095 34.8066C31.9048 34.8066 32.4509 34.9543 32.9478 35.2496C33.4446 35.5449 33.8407 35.941 34.136 36.4379C34.436 36.9301 34.586 37.4809 34.586 38.0902C34.586 38.2215 34.5743 38.3457 34.5509 38.4629C34.5274 38.5801 34.4478 38.6387 34.3118 38.6387L28.3845 38.6457C28.4267 39.1801 28.586 39.6723 28.8626 40.1223C29.1438 40.5723 29.5118 40.9355 29.9665 41.2121C30.4212 41.484 30.9298 41.6199 31.4923 41.6199C31.9423 41.6199 32.3782 41.5215 32.8001 41.3246C33.2267 41.123 33.5829 40.8488 33.8689 40.502C33.9204 40.4363 33.9907 40.4035 34.0798 40.4035C34.1548 40.4035 34.2157 40.4293 34.2626 40.4809C34.3142 40.5324 34.3399 40.5957 34.3399 40.6707C34.3399 40.7316 34.3189 40.7879 34.2767 40.8395C33.9392 41.252 33.5243 41.573 33.0321 41.8027C32.5399 42.0324 32.029 42.1473 31.4993 42.1473ZM34.0587 38.0973C34.0587 37.5863 33.9321 37.1223 33.679 36.7051C33.4306 36.2879 33.0978 35.9551 32.6806 35.7066C32.2634 35.4582 31.804 35.334 31.3024 35.334C30.7774 35.334 30.304 35.4629 29.8821 35.7207C29.4603 35.9785 29.1181 36.3184 28.8556 36.7402C28.5931 37.1621 28.4384 37.6215 28.3915 38.1184L34.0587 38.1113V38.0973Z"
    fill="white" fill-opacity="0.5" />
  <path
    d="M26.4902 42.0842C26.0027 42.0842 25.6348 41.9295 25.3863 41.6201C25.1379 41.3107 25.0137 40.91 25.0137 40.4178V40.3686L25.0277 35.4115H23.5934C23.5184 35.4115 23.4551 35.3881 23.4035 35.3412C23.352 35.2896 23.3262 35.2264 23.3262 35.1514C23.3262 35.0764 23.352 35.0131 23.4035 34.9615C23.4551 34.91 23.5184 34.8842 23.5934 34.8842H25.0348V33.0631C25.0348 32.9881 25.0605 32.9248 25.1121 32.8732C25.1637 32.8217 25.227 32.7959 25.302 32.7959C25.377 32.7959 25.4379 32.8217 25.4848 32.8732C25.5363 32.9248 25.5621 32.9881 25.5621 33.0631V34.8842H27.0387C27.2121 34.8842 27.2988 34.9709 27.2988 35.1443C27.2988 35.2193 27.273 35.2826 27.2215 35.3342C27.1746 35.3857 27.1137 35.4115 27.0387 35.4115H25.5551L25.541 40.3686V40.3756C25.541 40.7178 25.609 40.999 25.7449 41.2193C25.8809 41.4396 26.1129 41.5498 26.441 41.5498C26.7645 41.5498 27.0527 41.4537 27.3059 41.2615C27.3621 41.224 27.416 41.2053 27.4676 41.2053C27.5426 41.2053 27.6059 41.2311 27.6574 41.2826C27.709 41.3342 27.7348 41.3975 27.7348 41.4725C27.7348 41.5568 27.6973 41.6271 27.6223 41.6834C27.4723 41.8006 27.3012 41.8967 27.109 41.9717C26.9168 42.0467 26.7105 42.0842 26.4902 42.0842Z"
    fill="white" fill-opacity="0.5" />
  <path
    d="M22.396 32.6059C22.396 32.5355 22.4194 32.4746 22.4663 32.423C22.5179 32.3715 22.5812 32.3457 22.6562 32.3457C22.7312 32.3457 22.7944 32.3715 22.846 32.423C22.8976 32.4699 22.9233 32.5309 22.9233 32.6059V33.0629C22.9233 33.1379 22.8976 33.2012 22.846 33.2527C22.7944 33.3043 22.7312 33.3301 22.6562 33.3301C22.5812 33.3301 22.5179 33.3043 22.4663 33.2527C22.4194 33.2012 22.396 33.1379 22.396 33.0629V32.6059ZM22.6632 34.877C22.7382 34.877 22.7991 34.9027 22.846 34.9543C22.8976 35.0059 22.9233 35.0691 22.9233 35.1441L22.8882 41.8168V41.8238C22.8882 41.9973 22.8015 42.084 22.628 42.084C22.4499 42.084 22.3608 41.9949 22.3608 41.8168L22.396 35.1441C22.396 35.0691 22.4218 35.0059 22.4733 34.9543C22.5249 34.9027 22.5882 34.877 22.6632 34.877Z"
    fill="white" fill-opacity="0.5" />
  <path
    d="M15.514 42.1473C14.8343 42.1473 14.2179 41.9785 13.6647 41.641C13.1163 41.2988 12.678 40.8441 12.3499 40.277C12.0265 39.7098 11.8647 39.0887 11.8647 38.4137C11.8647 37.7715 12.0171 37.1785 12.3218 36.6348C12.6312 36.0863 13.046 35.6457 13.5663 35.3129C14.0913 34.9754 14.6772 34.8066 15.3241 34.8066C15.9194 34.8066 16.4655 34.9543 16.9624 35.2496C17.4593 35.5449 17.8554 35.941 18.1507 36.4379C18.4507 36.9301 18.6007 37.4809 18.6007 38.0902C18.6007 38.2215 18.589 38.3457 18.5655 38.4629C18.5421 38.5801 18.4624 38.6387 18.3265 38.6387L12.3991 38.6457C12.4413 39.1801 12.6007 39.6723 12.8772 40.1223C13.1585 40.5723 13.5265 40.9355 13.9812 41.2121C14.4358 41.484 14.9444 41.6199 15.5069 41.6199C15.9569 41.6199 16.3929 41.5215 16.8147 41.3246C17.2413 41.123 17.5976 40.8488 17.8835 40.502C17.9351 40.4363 18.0054 40.4035 18.0944 40.4035C18.1694 40.4035 18.2304 40.4293 18.2773 40.4809C18.3288 40.5324 18.3546 40.5957 18.3546 40.6707C18.3546 40.7316 18.3335 40.7879 18.2913 40.8395C17.9538 41.252 17.539 41.573 17.0468 41.8027C16.5546 42.0324 16.0437 42.1473 15.514 42.1473ZM18.0733 38.0973C18.0733 37.5863 17.9468 37.1223 17.6937 36.7051C17.4452 36.2879 17.1124 35.9551 16.6952 35.7066C16.278 35.4582 15.8187 35.334 15.3171 35.334C14.7921 35.334 14.3187 35.4629 13.8968 35.7207C13.4749 35.9785 13.1327 36.3184 12.8702 36.7402C12.6077 37.1621 12.453 37.6215 12.4062 38.1184L18.0733 38.1113V38.0973Z"
    fill="white" fill-opacity="0.5" />
  <path
    d="M5.48535 32.5852C5.48535 32.5008 5.51348 32.4375 5.56973 32.3953C5.62598 32.3531 5.68691 32.332 5.75254 32.332C5.81816 32.332 5.8791 32.3531 5.93535 32.3953C5.9916 32.4375 6.01738 32.5031 6.0127 32.5922V36.9164C6.17676 36.5977 6.36895 36.3047 6.58926 36.0375C6.81426 35.7656 7.07442 35.5336 7.36973 35.3414C7.58535 35.2008 7.8127 35.0906 8.05176 35.0109C8.29551 34.9266 8.55098 34.8844 8.81817 34.8844C9.45098 34.8844 9.95489 35.0508 10.3299 35.3836C10.7096 35.7164 10.9814 36.157 11.1455 36.7055C11.3096 37.2539 11.3916 37.8492 11.3916 38.4914L11.3846 41.8312C11.3846 41.9156 11.3564 41.9789 11.3002 42.0211C11.2486 42.0633 11.19 42.0844 11.1244 42.0844C11.0588 42.0844 10.9955 42.0633 10.9346 42.0211C10.8783 41.9789 10.8525 41.9133 10.8572 41.8242L10.8643 38.4914C10.8643 37.9523 10.8033 37.4508 10.6814 36.9867C10.5596 36.518 10.351 36.1406 10.0557 35.8547C9.76035 35.5641 9.3502 35.4187 8.8252 35.4187C8.41738 35.4187 8.02832 35.5406 7.65801 35.7844C7.37676 35.9719 7.10957 36.2156 6.85645 36.5156C6.60801 36.8156 6.4041 37.1508 6.24473 37.5211C6.09004 37.8867 6.0127 38.2641 6.0127 38.6531V41.8312C6.0127 41.9062 5.98691 41.9695 5.93535 42.0211C5.88848 42.0727 5.82754 42.0984 5.75254 42.0984C5.67754 42.0984 5.61426 42.0727 5.5627 42.0211C5.51113 41.9695 5.48535 41.9062 5.48535 41.8312V32.5852Z"
    fill="white" fill-opacity="0.5" />
  <path
    d="M3.98487 42.0842C3.49737 42.0842 3.1294 41.9295 2.88096 41.6201C2.63252 41.3107 2.5083 40.91 2.5083 40.4178V40.3686L2.52236 35.4115H1.08799C1.01299 35.4115 0.949707 35.3881 0.898145 35.3412C0.846582 35.2896 0.820801 35.2264 0.820801 35.1514C0.820801 35.0764 0.846582 35.0131 0.898145 34.9615C0.949707 34.91 1.01299 34.8842 1.08799 34.8842H2.5294V33.0631C2.5294 32.9881 2.55518 32.9248 2.60674 32.8732C2.6583 32.8217 2.72158 32.7959 2.79658 32.7959C2.87158 32.7959 2.93252 32.8217 2.9794 32.8732C3.03096 32.9248 3.05674 32.9881 3.05674 33.0631V34.8842H4.5333C4.70674 34.8842 4.79346 34.9709 4.79346 35.1443C4.79346 35.2193 4.76768 35.2826 4.71612 35.3342C4.66924 35.3857 4.6083 35.4115 4.5333 35.4115H3.04971L3.03565 40.3686V40.3756C3.03565 40.7178 3.10362 40.999 3.23955 41.2193C3.37549 41.4396 3.60752 41.5498 3.93565 41.5498C4.25908 41.5498 4.54737 41.4537 4.80049 41.2615C4.85674 41.224 4.91065 41.2053 4.96221 41.2053C5.03721 41.2053 5.10049 41.2311 5.15205 41.2826C5.20362 41.3342 5.2294 41.3975 5.2294 41.4725C5.2294 41.5568 5.1919 41.6271 5.1169 41.6834C4.9669 41.8006 4.7958 41.8967 4.60362 41.9717C4.41143 42.0467 4.20518 42.0842 3.98487 42.0842Z"
    fill="white" fill-opacity="0.5" />
</svg>