<svg xmlns="http://www.w3.org/2000/svg" width="170" height="32" viewBox="0 0 170 32" fill="none">
  <g clip-path="url(#clip0_3278_1936)">
    <path
      d="M15.9513 0C11.3449 0 0 11.3685 0 15.9848C0 20.6012 11.3449 31.9699 15.9513 31.9699C20.5576 31.9699 31.9028 20.601 31.9028 15.9848C31.9028 11.3687 20.5578 0 15.9513 0ZM13.4656 25.1256C11.5231 24.5951 6.30061 15.4404 6.83001 13.4938C7.35943 11.5472 16.4947 6.31382 18.4372 6.84434C20.3797 7.37478 25.6023 16.5293 25.0729 18.4759C24.5435 20.4227 15.408 25.656 13.4656 25.1256Z"
      fill="white" />
    <path
      d="M54.2003 19.5277V19.5218L45.1365 2.76962C44.9582 2.43987 44.4652 2.51883 44.3982 2.88789L39.8845 27.7677C39.8402 28.0116 40.0271 28.236 40.2743 28.236H43.7666C43.9584 28.236 44.1225 28.0986 44.1566 27.9097L46.7852 13.3927L53.8508 26.8909C53.9993 27.1744 54.4044 27.1744 54.5528 26.8909L61.6182 13.3927L64.2469 27.9097C64.2812 28.0986 64.4453 28.236 64.6369 28.236H68.1292C68.3765 28.236 68.5635 28.0116 68.5192 27.7677L64.0054 2.88789C63.9384 2.51883 63.4454 2.43987 63.2669 2.76962L54.2003 19.5277Z"
      fill="white" />
    <path
      d="M83.2038 3.23828C76.0143 3.23828 70.3823 8.83693 70.3823 15.9855C70.3823 23.1342 76.0143 28.7359 83.2038 28.7359C90.3748 28.7359 95.9927 23.1357 95.9927 15.9855C95.9927 8.83536 90.3748 3.23828 83.2038 3.23828ZM83.2038 24.4677C78.5156 24.4677 74.8422 20.7414 74.8422 15.9855C74.8422 11.2297 78.5156 7.50658 83.2038 7.50658C87.8735 7.50658 91.5328 11.2312 91.5328 15.9855C91.5328 20.74 87.8735 24.4677 83.2038 24.4677Z"
      fill="white" />
    <path
      d="M115.754 18.9098L100.72 2.69406C100.475 2.42961 100.033 2.60346 100.033 2.96441V27.8389C100.033 28.0582 100.211 28.236 100.429 28.236H104.064C104.283 28.236 104.46 28.0582 104.46 27.8389V13.0338L119.461 29.28C119.706 29.5452 120.148 29.3715 120.148 29.0103V4.13573C120.148 3.91635 119.971 3.73852 119.752 3.73852H116.15C115.931 3.73852 115.754 3.91635 115.754 4.13573V18.9098Z"
      fill="white" />
    <path
      d="M124.002 28.2357H127.905C128.059 28.2357 128.2 28.1457 128.265 28.0049L131.188 21.6604H140.537L143.394 28.0019C143.458 28.1442 143.6 28.2357 143.756 28.2357H147.99C148.282 28.2357 148.474 27.9294 148.347 27.6657L136.353 2.79275C136.209 2.49356 135.784 2.49356 135.639 2.79275L123.645 27.6657C123.518 27.9294 123.71 28.2357 124.002 28.2357ZM133.021 17.7238L135.926 11.4055L138.777 17.7238H133.021Z"
      fill="white" />
    <path
      d="M157.82 3.73828H151.823C151.604 3.73828 151.426 3.91613 151.426 4.13549V27.8386C151.426 28.0579 151.604 28.2359 151.823 28.2359H157.82C165.255 28.2359 169.875 23.5422 169.875 15.9855C169.875 8.42874 165.255 3.73828 157.82 3.73828ZM157.82 24.033H155.886V7.90845H157.82C162.647 7.90845 165.415 10.8526 165.415 15.9855C165.415 21.0997 162.647 24.033 157.82 24.033Z"
      fill="white" />
  </g>
  <defs>
    <clipPath id="clip0_3278_1936">
      <rect width="170" height="32" fill="white" />
    </clipPath>
  </defs>
</svg>