<svg xmlns="http://www.w3.org/2000/svg" width="188" height="40" viewBox="0 0 188 40" fill="none">
  <g clip-path="url(#clip0_3278_2000)">
    <path
      d="M143.354 5.33382C143.354 4.60656 143.595 3.8793 144.198 3.27326C144.681 2.66722 145.405 2.4248 146.25 2.4248C147.095 2.4248 147.819 2.66722 148.302 3.27326C148.906 3.8793 149.147 4.48535 149.147 5.33382C149.147 6.18227 148.906 6.90953 148.302 7.39436C147.699 8.0004 147.095 8.24282 146.25 8.24282C145.405 8.24282 144.802 8.0004 144.198 7.39436C143.595 6.78832 143.354 6.06106 143.354 5.33382ZM143.957 12.2427L148.422 11.3942V29.3331H143.957V12.2427Z"
      fill="white" />
    <path
      d="M139.369 10.9102H134.903V21.0917C134.903 23.1522 133.214 24.9703 131.041 24.9703C128.989 24.9703 127.178 23.2734 127.178 21.0917V10.9102H122.712V21.0917C122.712 25.6976 126.454 29.4551 131.041 29.4551C135.628 29.4551 139.369 25.6976 139.369 21.0917V10.9102Z"
      fill="white" />
    <path
      d="M78.8721 19.1523V29.3339H83.3383V19.1523C83.3383 17.0918 85.0281 15.3949 87.0802 15.3949C89.1322 15.3949 90.9428 17.0918 90.9428 19.2736V29.4551H95.4088V19.2736C95.4088 14.6677 91.667 10.9102 87.0802 10.9102C82.4933 10.9102 78.8721 14.5464 78.8721 19.1523Z"
      fill="white" />
    <path
      d="M160.614 25.2114C160.373 25.2114 160.131 25.2114 159.889 25.2114C158.924 25.2114 158.199 24.969 157.958 24.4841C157.717 23.9993 157.476 23.2721 157.476 22.5448V0L153.129 0.84846V22.5448C153.129 23.3932 153.251 24.2418 153.372 24.969C153.492 25.6962 153.854 26.4234 154.216 27.0296C154.7 27.6356 155.182 28.1204 156.027 28.3628C156.751 28.7264 157.717 28.8477 158.924 28.8477C159.407 28.8477 159.889 28.8477 160.493 28.7264V25.2114H160.614Z"
      fill="white" />
    <path
      d="M186.566 25.2114C185.6 25.2114 184.877 24.969 184.634 24.4841C184.393 23.9993 184.152 23.2721 184.152 22.5448V0L179.807 0.848461V11.3937C179.323 11.1512 178.841 10.9088 178.238 10.6664C177.03 10.1815 175.823 9.93911 174.375 9.93911C173.047 9.93911 171.719 10.1815 170.512 10.6664C169.305 11.1512 168.339 11.7572 167.374 12.6057C166.529 13.4541 165.805 14.4238 165.321 15.6359C164.839 16.848 164.598 18.0601 164.598 19.5146C164.598 20.9691 164.839 22.1812 165.321 23.3932C165.805 24.6053 166.529 25.575 167.374 26.4234C168.218 27.272 169.305 27.878 170.512 28.3628C171.719 28.8477 172.926 29.0901 174.375 29.0901C175.703 29.0901 177.03 28.8477 178.238 28.3628C178.599 28.2417 178.961 27.9992 179.323 27.878L179.202 27.7568C178.72 27.1508 178.479 26.5447 178.358 25.6962C178.238 25.0902 178.117 24.4841 178.117 23.7569C177.754 24.1206 177.272 24.4841 176.789 24.7266C176.185 25.0902 175.341 25.2114 174.495 25.2114C173.65 25.2114 172.806 25.0902 172.202 24.7266C171.599 24.3629 170.994 23.8781 170.633 23.3932C170.15 22.7872 169.909 22.1812 169.667 21.5751C169.425 20.8479 169.305 20.1207 169.305 19.5146C169.305 18.7873 169.425 18.1813 169.667 17.454C169.909 16.7268 170.15 16.1208 170.633 15.6359C171.115 15.0299 171.599 14.6662 172.202 14.3027C172.806 13.939 173.65 13.8178 174.495 13.8178C175.341 13.8178 176.185 13.939 176.789 14.3027C177.392 14.6662 177.995 15.0299 178.358 15.6359C178.72 16.242 179.082 16.848 179.323 17.454C179.445 17.6964 179.445 18.1813 179.445 18.5449V22.5448C179.445 23.3932 179.565 24.2418 179.686 24.969C179.807 25.6962 180.168 26.4234 180.53 27.0296C181.014 27.6356 181.496 28.1204 182.342 28.3628C183.065 28.7264 184.031 28.8477 185.238 28.8477C185.6 28.8477 186.203 28.8477 186.687 28.7264V25.2114C186.808 25.2114 186.687 25.2114 186.566 25.2114Z"
      fill="white" />
    <path
      d="M30.6795 14.7889C31.6452 14.7889 32.3694 15.0312 32.6108 15.5161C32.8523 16.0009 33.0936 16.7282 33.0936 17.4554V40.0002L37.4391 39.1518V28.6067C37.9219 28.849 38.4047 29.0914 39.0083 29.3339C40.2153 29.8187 41.4224 30.0611 42.8709 30.0611C44.1986 30.0611 45.5264 29.8187 46.7335 29.3339C47.9405 28.849 48.9063 28.243 49.8719 27.3945C50.7168 26.5461 51.441 25.5764 51.9238 24.3643C52.4067 23.1522 52.6481 21.9401 52.6481 20.4857C52.6481 19.0311 52.4067 17.8191 51.9238 16.607C51.441 15.3949 50.7168 14.4252 49.8719 13.5768C49.0269 12.7283 47.9405 12.1222 46.7335 11.6374C45.5264 11.1525 44.3193 10.9102 42.8709 10.9102C41.5431 10.9102 40.2153 11.1525 39.0083 11.6374C38.6462 11.7587 38.284 12.001 37.9219 12.1222L38.0426 12.2434C38.5254 12.8495 38.7669 13.4555 38.8876 14.304C39.0082 14.91 39.1289 15.5161 39.1289 16.2433C39.4911 15.8797 39.974 15.5161 40.4567 15.2737C41.0602 14.91 41.9053 14.7889 42.7502 14.7889C43.5951 14.7889 44.4401 14.91 45.0435 15.2737C45.6471 15.6373 46.2506 16.1221 46.6128 16.607C47.0956 17.213 47.337 17.8191 47.5784 18.4251C47.8199 19.1523 47.9405 19.8795 47.9405 20.4857C47.9405 21.2129 47.8199 21.8189 47.5784 22.5462C47.337 23.2734 47.0956 23.8794 46.6128 24.3643C46.1299 24.9703 45.6471 25.334 45.0435 25.6977C44.4401 26.0612 43.5951 26.1824 42.7502 26.1824C41.9053 26.1824 41.0602 26.0612 40.4567 25.6977C39.8532 25.334 39.2496 24.9703 38.8876 24.3643C38.5254 23.7583 38.1633 23.1522 37.9219 22.5462C37.8012 22.3038 37.8012 21.8189 37.8012 21.4553V17.4554C37.8012 16.607 37.6805 15.7585 37.5598 15.0312C37.4391 14.304 37.0769 13.5768 36.7149 12.9707C36.232 12.3647 35.7492 11.8799 34.9043 11.6374C34.18 11.2738 33.2143 11.1525 32.0073 11.1525C31.6452 11.1525 31.0417 11.1525 30.5588 11.2738V14.7889C30.4381 14.7889 30.5588 14.7889 30.6795 14.7889Z"
      fill="white" />
    <path
      d="M74.2545 16.3646C73.7717 15.1524 73.1681 14.1828 72.4439 13.3343C71.7197 12.4859 70.7541 11.8798 69.6677 11.5162C68.5813 11.1526 67.4949 10.9102 66.1671 10.9102C64.8394 10.9102 63.6323 11.1526 62.4252 11.6374C61.2183 12.1222 60.2525 12.7283 59.4076 13.5768C58.5626 14.4252 57.8384 15.3949 57.3556 16.607C56.8728 17.819 56.6313 19.1523 56.6313 20.6069C56.6313 22.0613 56.8728 23.3947 57.3556 24.6068C57.8384 25.8188 58.5626 26.7884 59.4076 27.5158C60.2525 28.3642 61.2183 28.9702 62.4252 29.3339C63.6323 29.6974 64.8394 29.9399 66.2879 29.9399C68.5813 29.9399 70.9955 29.3339 73.1681 27.3946L70.7541 24.4856C70.3919 24.8491 69.3055 25.5764 69.0642 25.6976C68.3399 26.0612 67.3742 26.3037 66.2879 26.3037C65.6844 26.3037 64.9601 26.1824 64.4773 25.94C63.8738 25.6976 63.3909 25.4552 62.9081 24.9703C62.4252 24.6068 62.0632 24.1219 61.8218 23.6371C61.5803 23.1522 61.3389 22.5462 61.3389 21.8189C61.2182 20.122 61.3389 18.5463 61.3389 18.5463C61.4596 17.213 61.9425 16.2433 62.9081 15.3949C63.8738 14.5464 64.9602 14.1828 66.2879 14.1828C67.0122 14.1828 67.6157 14.304 68.2192 14.5464C68.702 14.7888 69.1848 15.1524 69.547 15.5161C69.9091 15.8797 70.1505 16.3646 70.2712 16.8493C70.3919 17.3342 70.5126 17.9402 70.5126 18.5463H62.7874V21.8189H74.8581C74.8581 21.5766 74.8581 21.4553 74.8581 21.2129C74.8581 20.9704 74.8581 20.8492 74.8581 20.6069C74.9788 19.0311 74.7374 17.5767 74.2545 16.3646Z"
      fill="white" />
    <path
      d="M116.374 16.3593C114.761 14.4923 109.68 14.6168 109.68 14.6168H107.945H106.085V18.8487H110.424C111.539 18.8487 113.894 18.8487 113.894 21.8359C113.894 25.1964 111.291 25.1964 110.92 25.1964H104.226V18.8487V14.6168V8.64244H108.441C108.812 8.64244 109.06 8.76691 109.432 8.89138C109.68 9.01584 110.052 9.26478 110.176 9.51371C110.3 9.76264 110.548 10.136 110.672 10.385C110.796 10.7584 110.92 11.1318 110.92 11.5051C110.92 11.8786 110.796 12.252 110.672 12.6253C110.672 12.6253 110.672 12.7498 110.548 12.7498C113.398 12.8743 114.638 13.3721 115.506 13.7456C115.63 13.2477 115.754 12.5009 115.754 11.2562C115.754 9.8871 115.382 4.28613 108.317 4.28613H99.3921V29.4282H110.92C112.035 29.4282 113.026 29.3038 113.894 29.0549C114.885 28.8059 115.63 28.4326 116.374 27.8102C117.117 27.1879 117.613 26.4411 118.109 25.5698C118.48 24.5741 118.728 23.4539 118.728 22.0848C118.728 20.3422 118.109 17.9774 116.374 16.3593Z"
      fill="white" />
    <path
      d="M5.71484 7.40611C10.5163 3.19586 17.8042 3.28191 22.5186 7.78886C27.5048 12.5554 27.6983 20.5027 22.9411 25.5214C18.3524 30.3622 10.8089 30.7109 5.78871 26.4071L9.39058 22.6079C12.3143 24.9281 16.5544 24.6729 19.1693 21.915C21.9409 18.991 21.839 14.3594 18.9271 11.5763C16.2988 9.06322 12.3129 8.90744 9.51025 11.0348L5.71484 7.40611Z"
      fill="white" />
    <path
      d="M8.51659 13.0673L4.46415 9L0.515223 12.9319L4.56767 17.0008L0.5 21.0529L4.43371 25L8.50136 20.9479L12.4503 17.016L8.51659 13.0673Z"
      fill="white" />
  </g>
  <defs>
    <clipPath id="clip0_3278_2000">
      <rect width="187" height="40" fill="white" transform="translate(0.5)" />
    </clipPath>
  </defs>
</svg>