<svg xmlns="http://www.w3.org/2000/svg" width="48" height="48" viewBox="0 0 48 48" fill="none">
  <path
    d="M24 40H24.02M17 32.8581C18.8693 31.0258 21.3825 29.9995 24 29.9995C26.6175 29.9995 29.1307 31.0258 31 32.8581M10 25.7179C12.8361 22.9377 16.4356 21.0648 20.34 20.3379M37.9998 25.7179C36.7956 24.5374 35.4469 23.5139 33.9858 22.6719M4 17.64C6.47319 15.4282 9.29618 13.6419 12.354 12.354M43.9998 17.6398C40.9493 14.9115 37.3727 12.8361 33.4902 11.5415C29.6077 10.2469 25.5014 9.76033 21.4238 10.1118M4 4L44 44"
    stroke="#8D75E6" stroke-width="3" stroke-linecap="round" stroke-linejoin="round" />
</svg>